<?xml version="1.0" encoding="UTF-8" standalone="no"?>
<!-- Created with Inkscape (http://www.inkscape.org/) -->
<svg
   xmlns:svg="http://www.w3.org/2000/svg"
   xmlns="http://www.w3.org/2000/svg"
   version="1.0"
   width="531.22424"
   height="324.11203"
   id="svg2">
  <defs
     id="defs5" />
  <rect
     width="48.811722"
     height="21.120457"
     x="28.160608"
     y="1.2037178"
     style="fill:#93ab6e;fill-opacity:1;stroke:none;stroke-width:2;stroke-miterlimit:4;stroke-dasharray:none;stroke-opacity:1"
     id="rect2461" />
  <rect
     width="39.42485"
     height="22.059143"
     x="78.380356"
     y="0.73437434"
     style="fill:#00957e;fill-opacity:1;stroke:none;stroke-width:2;stroke-miterlimit:4;stroke-dasharray:none;stroke-opacity:1"
     id="rect2463" />
  <rect
     width="25.344547"
     height="22.528486"
     x="119.21324"
     y="0.26503089"
     style="fill:#b3e1b6;fill-opacity:1;stroke:none;stroke-width:2;stroke-miterlimit:4;stroke-dasharray:none;stroke-opacity:1"
     id="rect2465" />
  <rect
     width="52.097126"
     height="21.120455"
     x="143.14975"
     y="0.26503089"
     style="fill:#d3a050;fill-opacity:1;stroke:none;stroke-width:2;stroke-miterlimit:4;stroke-dasharray:none;stroke-opacity:1"
     id="rect2467" />
  <rect
     width="55.851875"
     height="22.528486"
     x="195.71623"
     y="-0.20431259"
     style="fill:#6fafb0;fill-opacity:1;stroke:none;stroke-width:2;stroke-miterlimit:4;stroke-dasharray:none;stroke-opacity:1"
     id="rect2469" />
  <rect
     width="42.710255"
     height="22.528486"
     x="252.03745"
     y="0.26503089"
     style="fill:#f0403c;fill-opacity:1;stroke:none;stroke-width:2;stroke-miterlimit:4;stroke-dasharray:none;stroke-opacity:1"
     id="rect2471" />
  <rect
     width="48.811722"
     height="22.528486"
     x="294.74771"
     y="0.26503089"
     style="fill:#924c94;fill-opacity:1;stroke:none;stroke-width:2;stroke-miterlimit:4;stroke-dasharray:none;stroke-opacity:1"
     id="rect2473" />
  <rect
     width="48.811722"
     height="22.059143"
     x="343.09009"
     y="0.73437434"
     style="fill:#00b0de;fill-opacity:1;stroke:none;stroke-width:2;stroke-miterlimit:4;stroke-dasharray:none;stroke-opacity:1"
     id="rect2475" />
  <rect
     width="74.156273"
     height="22.997829"
     x="392.84048"
     y="-0.20431259"
     style="fill:#7fc64e;fill-opacity:1;stroke:none;stroke-width:2;stroke-miterlimit:4;stroke-dasharray:none;stroke-opacity:1"
     id="rect2477" />
  <rect
     width="40.363541"
     height="21.5898"
     x="465.58871"
     y="1.2037178"
     style="fill:#fd9a52;fill-opacity:1;stroke:none;stroke-width:2;stroke-miterlimit:4;stroke-dasharray:none;stroke-opacity:1"
     id="rect2479" />
  <rect
     width="21.5898"
     height="21.120457"
     x="504.54425"
     y="1.6730614"
     style="fill:#ffe600;fill-opacity:1;stroke:none;stroke-width:2;stroke-miterlimit:4;stroke-dasharray:none;stroke-opacity:1"
     id="rect2481" />
  <path
     d="M 479.48902,300.20375 L 479.48902,305.07321"
     style="opacity:1;color:#000000;fill:none;fill-opacity:1;fill-rule:evenodd;stroke:#000000;stroke-width:2;stroke-linecap:round;stroke-linejoin:miter;marker:none;marker-start:none;marker-mid:none;marker-end:none;stroke-miterlimit:4;stroke-dasharray:none;stroke-dashoffset:0;stroke-opacity:1;visibility:visible;display:inline;overflow:visible"
     id="path4552" />
  <path
     d="M 433.66885,300.164 L 433.66885,305.03346"
     style="opacity:1;color:#000000;fill:none;fill-opacity:1;fill-rule:evenodd;stroke:#000000;stroke-width:2;stroke-linecap:round;stroke-linejoin:miter;marker:none;marker-start:none;marker-mid:none;marker-end:none;stroke-miterlimit:4;stroke-dasharray:none;stroke-dashoffset:0;stroke-opacity:1;visibility:visible;display:inline;overflow:visible"
     id="path4554" />
  <path
     d="M 387.90947,300.164 L 387.90947,305.03346"
     style="opacity:1;color:#000000;fill:none;fill-opacity:1;fill-rule:evenodd;stroke:#000000;stroke-width:2;stroke-linecap:round;stroke-linejoin:miter;marker:none;marker-start:none;marker-mid:none;marker-end:none;stroke-miterlimit:4;stroke-dasharray:none;stroke-dashoffset:0;stroke-opacity:1;visibility:visible;display:inline;overflow:visible"
     id="path4556" />
  <path
     d="M 341.66392,300.28554 L 341.66392,305.155"
     style="opacity:1;color:#000000;fill:none;fill-opacity:1;fill-rule:evenodd;stroke:#000000;stroke-width:2;stroke-linecap:round;stroke-linejoin:miter;marker:none;marker-start:none;marker-mid:none;marker-end:none;stroke-miterlimit:4;stroke-dasharray:none;stroke-dashoffset:0;stroke-opacity:1;visibility:visible;display:inline;overflow:visible"
     id="path4558" />
  <path
     d="M 296.14761,300.40708 L 296.14761,305.27654"
     style="opacity:1;color:#000000;fill:none;fill-opacity:1;fill-rule:evenodd;stroke:#000000;stroke-width:2;stroke-linecap:round;stroke-linejoin:miter;marker:none;marker-start:none;marker-mid:none;marker-end:none;stroke-miterlimit:4;stroke-dasharray:none;stroke-dashoffset:0;stroke-opacity:1;visibility:visible;display:inline;overflow:visible"
     id="path4560" />
  <path
     d="M 250.08438,300.28554 L 250.08438,305.155"
     style="opacity:1;color:#000000;fill:none;fill-opacity:1;fill-rule:evenodd;stroke:#000000;stroke-width:2;stroke-linecap:round;stroke-linejoin:miter;marker:none;marker-start:none;marker-mid:none;marker-end:none;stroke-miterlimit:4;stroke-dasharray:none;stroke-dashoffset:0;stroke-opacity:1;visibility:visible;display:inline;overflow:visible"
     id="path4562" />
  <path
     d="M 204.26422,300.34631 L 204.26422,305.21577"
     style="opacity:1;color:#000000;fill:none;fill-opacity:1;fill-rule:evenodd;stroke:#000000;stroke-width:2;stroke-linecap:round;stroke-linejoin:miter;marker:none;marker-start:none;marker-mid:none;marker-end:none;stroke-miterlimit:4;stroke-dasharray:none;stroke-dashoffset:0;stroke-opacity:1;visibility:visible;display:inline;overflow:visible"
     id="path4564" />
  <path
     d="M 158.50483,300.40708 L 158.50483,305.27654"
     style="opacity:1;color:#000000;fill:none;fill-opacity:1;fill-rule:evenodd;stroke:#000000;stroke-width:2;stroke-linecap:round;stroke-linejoin:miter;marker:none;marker-start:none;marker-mid:none;marker-end:none;stroke-miterlimit:4;stroke-dasharray:none;stroke-dashoffset:0;stroke-opacity:1;visibility:visible;display:inline;overflow:visible"
     id="path4566" />
  <path
     d="M 112.56313,300.34631 L 112.56313,305.21577"
     style="opacity:1;color:#000000;fill:none;fill-opacity:1;fill-rule:evenodd;stroke:#000000;stroke-width:2;stroke-linecap:round;stroke-linejoin:miter;marker:none;marker-start:none;marker-mid:none;marker-end:none;stroke-miterlimit:4;stroke-dasharray:none;stroke-dashoffset:0;stroke-opacity:1;visibility:visible;display:inline;overflow:visible"
     id="path4568" />
  <path
     d="M 66.621442,300.40708 L 66.621442,305.27654"
     style="opacity:1;color:#000000;fill:none;fill-opacity:1;fill-rule:evenodd;stroke:#000000;stroke-width:2;stroke-linecap:round;stroke-linejoin:miter;marker:none;marker-start:none;marker-mid:none;marker-end:none;stroke-miterlimit:4;stroke-dasharray:none;stroke-dashoffset:0;stroke-opacity:1;visibility:visible;display:inline;overflow:visible"
     id="path4570" />
  <path
     d="M 524.72413,1 L 27.326263,1.121539"
     style="opacity:1;color:#000000;fill:none;fill-opacity:1;fill-rule:evenodd;stroke:#000000;stroke-width:2;stroke-linecap:round;stroke-linejoin:miter;marker:none;marker-start:none;marker-mid:none;marker-end:none;stroke-miterlimit:4;stroke-dasharray:none;stroke-dashoffset:0;stroke-opacity:1;visibility:visible;display:inline;overflow:visible"
     id="path4574" />
  <path
     d="M 524.22669,22.147765 L 22.464206,22.269304"
     style="opacity:1;color:#000000;fill:none;fill-opacity:1;fill-rule:evenodd;stroke:#000000;stroke-width:2;stroke-linecap:round;stroke-linejoin:miter;marker:none;marker-start:none;marker-mid:none;marker-end:none;stroke-miterlimit:4;stroke-dasharray:none;stroke-dashoffset:0;stroke-opacity:1;visibility:visible;display:inline;overflow:visible"
     id="path4576" />
  <path
     d="M 525.51333,293.92297 L 524.02373,293.99579 L 524.15236,284.18528 L 521.92848,284.2718 L 521.82091,285.57909 L 520.61192,285.65189 L 520.63297,290.75761 L 518.97263,290.39782 L 518.92822,286.65848 L 514.82654,286.64476 L 514.80549,278.64695 L 510.81139,278.4602 L 510.81139,290.41165 L 506.65839,290.67122 L 506.69744,291.94985 L 504.60551,291.82096 L 504.53607,293.00724 L 500.01771,292.98972 L 500.02918,285.50867 L 498.72356,285.45876 L 498.87835,277.50509 L 493.84132,277.62634 L 493.76137,242.63629 L 491.78235,242.73671 L 491.47364,283.70672 L 488.8581,283.56617 L 488.84752,284.76974 L 474.81697,284.65883 L 474.68768,287.7288 L 471.6651,287.64312 L 471.73096,281.70907 L 469.8776,281.86169 L 469.78372,279.60081 L 467.63817,279.74565 L 467.65206,282.73621 L 465.80897,282.66465 L 465.77026,156.67581 L 462.82239,156.65923 L 462.73112,225.61252 L 460.70403,225.62323 L 460.68722,270.63624 L 454.81238,270.64893 L 454.66144,271.8077 L 448.66927,271.65037 L 448.6697,287.66036 L 446.78317,287.63754 L 446.7329,294.66023 L 444.86117,294.52616 L 444.88575,293.53214 L 443.76567,293.72653 L 443.82002,285.62422 L 441.81757,285.63657 L 441.85879,281.73455 L 439.8766,281.56799 L 439.87557,264.71666 L 437.57264,264.79201 L 437.5918,280.7503 L 435.8283,280.85408 L 435.79626,270.66128 L 430.68808,270.66035 L 430.62271,279.6346 L 426.82295,279.55994 L 426.64024,281.7075 L 422.8299,281.89454 L 422.71402,270.75243 L 416.76701,270.82871 L 416.64866,264.71086 L 410.78267,264.60847 L 410.77637,282.7144 L 406.94082,282.61937 L 406.96987,288.65777 L 402.82283,288.86628 L 402.76879,283.75957 L 400.83797,283.8539 L 400.85935,282.66934 L 398.76634,282.73697 L 398.82038,279.69677 L 397.07003,279.73363 L 396.92255,284.5992 L 394.85038,284.73217 L 394.88298,287.66659 L 391.87813,287.69398 L 391.83277,238.89125 L 389.97218,239.0335 L 389.71496,264.62127 L 387.72633,264.51847 L 387.67297,271.69704 L 384.92552,271.81059 L 384.85498,270.69067 L 382.7427,270.7489 L 382.61334,273.66264 L 380.80944,273.72518 L 380.47969,286.68141 L 378.95857,286.79695 L 378.71175,278.77327 L 377.57075,278.82222 L 377.61705,273.80951 L 376.38965,273.89786 L 376.57218,277.76228 L 375.48374,277.69094 L 375.38808,273.81329 L 374.17549,273.81239 L 374.33039,277.73932 L 373.56512,277.72714 L 373.73882,286.7113 L 371.80668,286.83028 L 371.80907,272.71265 L 369.90964,272.95512 L 369.8188,268.65895 L 367.74222,268.81215 L 367.61082,283.71373 L 364.81464,283.63848 L 364.758,274.57753 L 360.62541,274.69475 L 360.78778,260.90757 L 357.97387,261.05862 L 357.78245,252.66856 L 354.92407,252.62946 L 354.78627,271.69315 L 351.8414,271.75272 L 351.74216,284.80033 L 348.98855,284.71987 L 348.8564,286.66171 L 345.70978,286.63165 L 345.8516,293.69084 L 342.88399,293.68374 L 342.83181,166.7809 L 338.76516,166.91864 L 338.88089,222.68308 L 334.68992,222.76774 L 334.69512,253.80088 L 330.87064,253.69671 L 330.88143,248.70855 L 326.76153,248.721 L 326.79333,245.70094 L 321.82367,245.91997 L 321.91026,243.70539 L 316.82497,243.83055 L 316.70319,272.84035 L 312.064,272.87927 L 311.92312,270.71858 L 307.87065,270.7473 L 307.91698,277.65803 L 305.89476,277.59598 L 305.88858,282.6707 L 303.89886,282.83242 L 303.76805,280.7915 L 300.90595,280.70565 L 300.8852,271.66002 L 298.80055,271.69625 L 298.80519,290.74734 L 296.85553,290.84426 L 296.83587,278.90254 L 295.77098,278.80268 L 295.68284,258.75185 L 294.63908,258.82255 L 294.9476,62.633379 L 292.81308,62.804569 L 292.79888,168.61188 L 286.84619,168.60431 L 286.79758,136.65453 L 281.79975,136.79352 L 281.95133,227.69324 L 277.76305,227.59562 L 277.70479,250.59157 L 272.87494,250.4628 L 272.89003,270.63624 L 268.83533,270.83281 L 268.92912,268.6355 L 264.88405,268.77684 L 264.87121,269.72454 L 259.87497,269.73326 L 259.87973,277.84749 L 255.00067,277.88639 L 254.87725,289.61385 L 252.84716,289.82063 L 252.84881,288.77621 L 250.81447,288.85718 L 250.8307,234.77029 L 246.92239,234.7554 L 246.68484,262.60513 L 244.79781,262.61861 L 244.79761,257.32792 L 243.75616,257.41529 L 243.86895,247.62583 L 241.85888,247.6608 L 241.86883,266.78532 L 239.80021,266.80409 L 239.80226,281.09818 L 236.87512,281.16082 L 236.86935,271.72684 L 233.97285,271.85094 L 233.85913,263.75344 L 229.91906,263.6159 L 229.81523,198.74639 L 226.6679,198.71443 L 226.72417,215.56247 L 225.60846,215.61791 L 225.58067,225.64902 L 217.89493,225.64569 L 217.89224,223.77756 L 208.79358,223.72358 L 208.83472,255.65836 L 202.95687,255.72772 L 202.75871,257.20595 L 195.79206,257.06077 L 195.78663,215.67725 L 191.71315,215.68784 L 191.74826,259.65327 L 186.92971,259.69155 L 186.93922,263.76326 L 181.84827,263.57654 L 181.74494,194.81537 L 178.90373,194.76841 L 178.71139,243.69563 L 175.9391,243.6761 L 175.84859,249.75106 L 171.82104,249.68699 L 171.71947,209.64921 L 169.90612,209.70813 L 169.79949,221.77896 L 168.0529,221.78384 L 167.96836,222.74614 L 165.864,222.92464 L 165.93331,232.6859 L 163.83601,232.70895 L 163.80646,234.64748 L 160.81244,234.62991 L 160.89358,242.81766 L 152.81496,242.66407 L 152.74628,279.6958 L 149.86755,279.77971 L 149.87995,267.69939 L 148.58649,267.71953 L 148.65261,265.56972 L 147.72697,265.56343 L 147.8182,260.8124 L 145.8523,260.87241 L 145.85586,257.79442 L 143.77461,257.70657 L 143.77291,222.83589 L 141.97742,222.84722 L 141.77798,226.78629 L 137.89441,226.83454 L 137.68954,251.69897 L 134.9637,251.7229 L 134.90399,253.67416 L 132.97129,253.77359 L 132.97428,264.77498 L 125.97675,264.68569 L 125.87213,268.76502 L 122.92985,268.62456 L 122.89501,262.8824 L 118.87681,262.89006 L 118.91803,179.77204 L 116.81355,179.71846 L 117.03083,162.74272 L 115.17068,162.67901 L 115.89831,255.70639 L 113.81279,255.55814 L 113.80248,251.68019 L 109.85815,251.85079 L 109.87082,239.71258 L 106.93576,239.72143 L 106.94398,241.75452 L 102.86554,241.84985 L 102.98427,266.65242 L 101.83008,266.62658 L 101.84177,267.52637 L 99.868753,267.76478 L 99.772783,261.72448 L 97.055373,261.74518 L 97.160173,245.50798 L 96.045353,245.49292 L 95.936623,232.61028 L 92.951253,232.56984 L 92.966533,252.62855 L 89.884913,252.84032 L 89.772473,244.67444 L 86.881823,244.74883 L 86.817363,205.6175 L 81.783103,205.73327 L 81.871423,201.72121 L 77.972473,201.71946 L 77.912083,172.82144 L 75.817233,172.75703 L 76.052053,251.59665 L 74.231121,251.61243 L 73.805801,215.56197 L 71.854001,215.75302 L 71.648411,205.75611 L 69.814181,205.82706 L 69.915521,211.66299 L 67.972101,211.61973 L 67.686752,116.73681 L 65.845052,116.65597 L 65.892642,171.79881 L 64.723152,171.77156 L 64.852422,183.92175 L 63.765622,183.91874 L 63.879242,212.60005 L 61.912152,212.70144 L 61.885232,190.82279 L 60.753711,190.83028 L 60.929621,232.62776 L 58.878901,232.66248 L 58.862021,234.84109 L 54.699621,234.84663 L 54.688721,226.68071 L 52.896681,226.64655 L 52.933051,240.65028 L 49.988681,240.67335 L 49.777001,109.67736 L 47.767471,109.68912 L 47.847231,171.65877 L 44.919401,171.6653 L 45.034161,250.53479 L 42.836131,250.65483 L 43.043721,258.67348 L 39.637461,258.64843 L 39.838431,225.28401 L 37.737331,225.15993 L 37.952161,262.70209 L 35.862061,262.88379 L 35.860761,280.75839 L 31.909551,280.64135 L 31.823581,241.99997 L 28.068361,242.16115 L 28.381051,299.62672 L 525.3824,299.86223 L 525.51333,293.92297 z "
     style="opacity:1;color:#000000;fill:#005ab7;fill-opacity:1;fill-rule:evenodd;stroke:#000000;stroke-width:0.2;stroke-linecap:round;stroke-linejoin:miter;marker:none;marker-start:none;marker-mid:none;marker-end:none;stroke-miterlimit:4;stroke-dasharray:none;stroke-dashoffset:0;stroke-opacity:1;visibility:visible;display:inline;overflow:visible"
     id="path4909" />
  <path
     d="M 523.93564,299.74257 L 22.173147,299.86411"
     style="opacity:1;color:#000000;fill:none;fill-opacity:1;fill-rule:evenodd;stroke:#000000;stroke-width:2;stroke-linecap:round;stroke-linejoin:miter;marker:none;marker-start:none;marker-mid:none;marker-end:none;stroke-miterlimit:4;stroke-dasharray:none;stroke-dashoffset:0;stroke-opacity:1;visibility:visible;display:inline;overflow:visible"
     id="path4578" />
  <path
     d="M 22.217678,253.6818 L 27.087138,253.6818"
     style="opacity:1;color:#000000;fill:none;fill-opacity:1;fill-rule:evenodd;stroke:#000000;stroke-width:2;stroke-linecap:round;stroke-linejoin:miter;marker:none;marker-start:none;marker-mid:none;marker-end:none;stroke-miterlimit:4;stroke-dasharray:none;stroke-dashoffset:0;stroke-opacity:1;visibility:visible;display:inline;overflow:visible"
     id="path4580" />
  <path
     d="M 22.339214,207.17699 L 27.208674,207.17699"
     style="opacity:1;color:#000000;fill:none;fill-opacity:1;fill-rule:evenodd;stroke:#000000;stroke-width:2;stroke-linecap:round;stroke-linejoin:miter;marker:none;marker-start:none;marker-mid:none;marker-end:none;stroke-miterlimit:4;stroke-dasharray:none;stroke-dashoffset:0;stroke-opacity:1;visibility:visible;display:inline;overflow:visible"
     id="path4582" />
  <path
     d="M 22.399986,161.06671 L 27.269446,161.06671"
     style="opacity:1;color:#000000;fill:none;fill-opacity:1;fill-rule:evenodd;stroke:#000000;stroke-width:2;stroke-linecap:round;stroke-linejoin:miter;marker:none;marker-start:none;marker-mid:none;marker-end:none;stroke-miterlimit:4;stroke-dasharray:none;stroke-dashoffset:0;stroke-opacity:1;visibility:visible;display:inline;overflow:visible"
     id="path4584" />
  <path
     d="M 22.460755,115.06424 L 27.330215,115.06424"
     style="opacity:1;color:#000000;fill:none;fill-opacity:1;fill-rule:evenodd;stroke:#000000;stroke-width:2;stroke-linecap:round;stroke-linejoin:miter;marker:none;marker-start:none;marker-mid:none;marker-end:none;stroke-miterlimit:4;stroke-dasharray:none;stroke-dashoffset:0;stroke-opacity:1;visibility:visible;display:inline;overflow:visible"
     id="path4586" />
  <path
     d="M 22.339216,68.697159 L 27.208676,68.697159"
     style="opacity:1;color:#000000;fill:none;fill-opacity:1;fill-rule:evenodd;stroke:#000000;stroke-width:2;stroke-linecap:round;stroke-linejoin:miter;marker:none;marker-start:none;marker-mid:none;marker-end:none;stroke-miterlimit:4;stroke-dasharray:none;stroke-dashoffset:0;stroke-opacity:1;visibility:visible;display:inline;overflow:visible"
     id="path4588" />
  <path
     d="M 12.84444,304.05726 C 13.641309,304.05726 14.237663,303.61976 14.633503,302.74476 C 15.029329,301.86976 15.227245,300.54945 15.227253,298.78382 C 15.227245,297.01299 15.029329,295.69008 14.633503,294.81507 C 14.237663,293.94008 13.641309,293.50258 12.84444,293.50257 C 12.047561,293.50258 11.451207,293.94008 11.055378,294.81507 C 10.659542,295.69008 10.461625,297.01299 10.461628,298.78382 C 10.461625,300.54945 10.659542,301.86976 11.055378,302.74476 C 11.451207,303.61976 12.047561,304.05726 12.84444,304.05726 M 12.84444,304.83069 C 11.578812,304.83069 10.589229,304.29944 9.87569,303.23694 C 9.167356,302.17445 8.813189,300.69007 8.81319,298.78382 C 8.813189,296.87237 9.167356,295.38539 9.87569,294.32288 C 10.589229,293.26039 11.578812,292.72914 12.84444,292.72913 C 14.115267,292.72914 15.10485,293.26039 15.81319,294.32288 C 16.521515,295.38539 16.875681,296.87237 16.87569,298.78382 C 16.875681,300.69007 16.521515,302.17445 15.81319,303.23694 C 15.10485,304.29944 14.115267,304.83069 12.84444,304.83069"
     style="font-size:16px;font-style:normal;font-variant:normal;font-weight:normal;font-stretch:normal;text-align:start;line-height:100%;writing-mode:lr-tb;text-anchor:start;fill:#000000;fill-opacity:1;fill-rule:evenodd;stroke:none;stroke-width:1;stroke-linecap:butt;stroke-linejoin:round;stroke-miterlimit:4;stroke-dashoffset:0;stroke-opacity:1;font-family:Serif"
     id="text4590" />
  <path
     d="M 527.19302,323.00766 C 527.98989,323.00767 528.58624,322.57017 528.98208,321.69516 C 529.37791,320.82017 529.57583,319.49986 529.57583,317.73423 C 529.57583,315.9634 529.37791,314.64049 528.98208,313.76548 C 528.58624,312.89049 527.98989,312.45299 527.19302,312.45298 C 526.39614,312.45299 525.79979,312.89049 525.40396,313.76548 C 525.00812,314.64049 524.8102,315.9634 524.81021,317.73423 C 524.8102,319.49986 525.00812,320.82017 525.40396,321.69516 C 525.79979,322.57017 526.39614,323.00767 527.19302,323.00766 M 527.19302,323.7811 C 525.92739,323.7811 524.93781,323.24985 524.22427,322.18735 C 523.51594,321.12485 523.16177,319.64048 523.16177,317.73423 C 523.16177,315.82278 523.51594,314.3358 524.22427,313.27329 C 524.93781,312.2108 525.92739,311.67955 527.19302,311.67954 C 528.46385,311.67955 529.45343,312.2108 530.16177,313.27329 C 530.87009,314.3358 531.22426,315.82278 531.22427,317.73423 C 531.22426,319.64048 530.87009,321.12485 530.16177,322.18735 C 529.45343,323.24985 528.46385,323.7811 527.19302,323.7811"
     style="font-size:16px;font-style:normal;font-variant:normal;font-weight:normal;font-stretch:normal;text-align:start;line-height:100%;writing-mode:lr-tb;text-anchor:start;fill:#000000;fill-opacity:1;fill-rule:evenodd;stroke:none;stroke-width:1;stroke-linecap:butt;stroke-linejoin:round;stroke-miterlimit:4;stroke-dashoffset:0;stroke-opacity:1;font-family:Serif"
     id="text4594" />
  <path
     d="M 2.02907,257.98432 L 2.02907,257.15619 L 4.06032,257.15619 L 4.06032,247.45307 L 1.708757,248.97651 L 1.708757,247.95307 L 4.552507,246.10932 L 5.630632,246.10932 L 5.630632,257.15619 L 7.661882,257.15619 L 7.661882,257.98432 L 2.02907,257.98432 M 15.02907,257.43744 C 15.825939,257.43744 16.422292,256.99994 16.818132,256.12494 C 17.213958,255.24995 17.411875,253.92964 17.411882,252.16401 C 17.411875,250.39318 17.213958,249.07027 16.818132,248.19526 C 16.422292,247.32027 15.825939,246.88277 15.02907,246.88276 C 14.232191,246.88277 13.635837,247.32027 13.240007,248.19526 C 12.844171,249.07027 12.646255,250.39318 12.646257,252.16401 C 12.646255,253.92964 12.844171,255.24995 13.240007,256.12494 C 13.635837,256.99994 14.232191,257.43744 15.02907,257.43744 M 15.02907,258.21088 C 13.763441,258.21088 12.773859,257.67963 12.06032,256.61713 C 11.351985,255.55463 10.997819,254.07026 10.99782,252.16401 C 10.997819,250.25256 11.351985,248.76558 12.06032,247.70307 C 12.773859,246.64058 13.763441,246.10933 15.02907,246.10932 C 16.299897,246.10933 17.289479,246.64058 17.99782,247.70307 C 18.706144,248.76558 19.060311,250.25256 19.06032,252.16401 C 19.060311,254.07026 18.706144,255.55463 17.99782,256.61713 C 17.289479,257.67963 16.299897,258.21088 15.02907,258.21088"
     style="font-size:16px;font-style:normal;font-variant:normal;font-weight:normal;font-stretch:normal;text-align:start;line-height:100%;writing-mode:lr-tb;text-anchor:start;fill:#000000;fill-opacity:1;fill-rule:evenodd;stroke:none;stroke-width:1;stroke-linecap:butt;stroke-linejoin:round;stroke-miterlimit:4;stroke-dashoffset:0;stroke-opacity:1;font-family:Serif"
     id="text4598" />
  <path
     d="M 1.121094,203.64594 L 0.246094,203.64594 L 0.246094,201.56781 C 0.803384,201.27095 1.363279,201.04439 1.925781,200.88813 C 2.493486,200.73189 3.048173,200.65376 3.589844,200.65375 C 4.80338,200.65376 5.761712,200.94803 6.464844,201.53656 C 7.167961,202.12512 7.519523,202.9246 7.519531,203.935 C 7.519523,205.07563 6.722648,206.44022 5.128906,208.02875 C 5.0039,208.14855 4.91015,208.23969 4.847656,208.30219 L 1.902344,211.2475 L 6.769531,211.2475 L 6.769531,209.81 L 7.683594,209.81 L 7.683594,212.52875 L 0.160156,212.52875 L 0.160156,211.67719 L 3.699219,208.14594 C 4.480463,207.3647 5.037754,206.64855 5.371094,205.9975 C 5.70442,205.34126 5.871087,204.65376 5.871094,203.935 C 5.871087,203.14855 5.665358,202.53397 5.253906,202.09125 C 4.84765,201.64855 4.285151,201.4272 3.566406,201.42719 C 2.821611,201.4272 2.24609,201.6121 1.839844,201.98188 C 1.433591,202.35168 1.194008,202.90637 1.121094,203.64594 M 14.347656,211.98188 C 15.144525,211.98188 15.740879,211.54438 16.136719,210.66938 C 16.532545,209.79438 16.730461,208.47407 16.730469,206.70844 C 16.730461,204.93761 16.532545,203.6147 16.136719,202.73969 C 15.740879,201.8647 15.144525,201.4272 14.347656,201.42719 C 13.550777,201.4272 12.954423,201.8647 12.558594,202.73969 C 12.162757,203.6147 11.964841,204.93761 11.964844,206.70844 C 11.964841,208.47407 12.162757,209.79438 12.558594,210.66938 C 12.954423,211.54438 13.550777,211.98188 14.347656,211.98188 M 14.347656,212.75531 C 13.082027,212.75531 12.092445,212.22407 11.378906,211.16156 C 10.670571,210.09907 10.316405,208.61469 10.316406,206.70844 C 10.316405,204.79699 10.670571,203.31001 11.378906,202.2475 C 12.092445,201.18501 13.082027,200.65376 14.347656,200.65375 C 15.618483,200.65376 16.608065,201.18501 17.316406,202.2475 C 18.024731,203.31001 18.378897,204.79699 18.378906,206.70844 C 18.378897,208.61469 18.024731,210.09907 17.316406,211.16156 C 16.608065,212.22407 15.618483,212.75531 14.347656,212.75531"
     style="font-size:16px;font-style:normal;font-variant:normal;font-weight:normal;font-stretch:normal;text-align:start;line-height:100%;writing-mode:lr-tb;text-anchor:start;fill:#000000;fill-opacity:1;fill-rule:evenodd;stroke:none;stroke-width:1;stroke-linecap:butt;stroke-linejoin:round;stroke-miterlimit:4;stroke-dashoffset:0;stroke-opacity:1;font-family:Serif"
     id="text4602" />
  <path
     d="M 0.94096,155.11136 C 1.550333,154.88221 2.133665,154.70773 2.69096,154.58793 C 3.253456,154.46815 3.779497,154.40825 4.269085,154.40824 C 5.409704,154.40825 6.300328,154.65565 6.94096,155.15043 C 7.581577,155.64002 7.901889,156.32231 7.901897,157.1973 C 7.901889,157.90043 7.680535,158.48898 7.237835,158.96293 C 6.795119,159.43168 6.167516,159.74939 5.355022,159.91605 C 6.313349,160.05147 7.055535,160.40043 7.581585,160.96293 C 8.112826,161.52022 8.378451,162.24418 8.37846,163.1348 C 8.378451,164.22334 8.011264,165.05928 7.276897,165.64261 C 6.547723,166.22074 5.495641,166.5098 4.120647,166.5098 C 3.511268,166.5098 2.914915,166.4447 2.331585,166.31449 C 1.753457,166.18428 1.177937,165.98636 0.605022,165.72074 L 0.605022,163.45511 L 1.480022,163.45511 C 1.532104,164.20512 1.784707,164.77282 2.237835,165.15824 C 2.690957,165.54366 3.328977,165.73636 4.151897,165.73636 C 4.948767,165.73636 5.57637,165.5072 6.03471,165.04886 C 6.498244,164.58532 6.730015,163.95251 6.730022,163.15043 C 6.730015,162.23376 6.493036,161.54106 6.019085,161.0723 C 5.54512,160.59835 4.849809,160.36137 3.933147,160.36136 L 3.19096,160.36136 L 3.19096,159.56449 L 3.581585,159.56449 C 4.493038,159.5645 5.175329,159.377 5.62846,159.00199 C 6.086786,158.62179 6.315953,158.05148 6.31596,157.29105 C 6.315953,156.60877 6.128453,156.08794 5.75346,155.72855 C 5.378454,155.36398 4.839392,155.18169 4.136272,155.18168 C 3.433143,155.18169 2.886269,155.34835 2.495647,155.68168 C 2.110228,156.01502 1.883666,156.50981 1.81596,157.16605 L 0.94096,157.16605 L 0.94096,155.11136 M 14.65971,165.73636 C 15.456579,165.73636 16.052933,165.29886 16.448772,164.42386 C 16.844598,163.54887 17.042515,162.22856 17.042522,160.46293 C 17.042515,158.6921 16.844598,157.36918 16.448772,156.49418 C 16.052933,155.61919 15.456579,155.18169 14.65971,155.18168 C 13.862831,155.18169 13.266477,155.61919 12.870647,156.49418 C 12.474811,157.36918 12.276895,158.6921 12.276897,160.46293 C 12.276895,162.22856 12.474811,163.54887 12.870647,164.42386 C 13.266477,165.29886 13.862831,165.73636 14.65971,165.73636 M 14.65971,166.5098 C 13.394081,166.5098 12.404499,165.97855 11.69096,164.91605 C 10.982625,163.85355 10.628459,162.36918 10.62846,160.46293 C 10.628459,158.55148 10.982625,157.0645 11.69096,156.00199 C 12.404499,154.9395 13.394081,154.40825 14.65971,154.40824 C 15.930537,154.40825 16.920119,154.9395 17.62846,156.00199 C 18.336784,157.0645 18.690951,158.55148 18.69096,160.46293 C 18.690951,162.36918 18.336784,163.85355 17.62846,164.91605 C 16.920119,165.97855 15.930537,166.5098 14.65971,166.5098"
     style="font-size:16px;font-style:normal;font-variant:normal;font-weight:normal;font-stretch:normal;text-align:start;line-height:100%;writing-mode:lr-tb;text-anchor:start;fill:#000000;fill-opacity:1;fill-rule:evenodd;stroke:none;stroke-width:1;stroke-linecap:butt;stroke-linejoin:round;stroke-miterlimit:4;stroke-dashoffset:0;stroke-opacity:1;font-family:Serif"
     id="text4608" />
  <path
     d="M 5.09375,115.71995 L 5.09375,109.51682 L 1.109375,115.71995 L 5.09375,115.71995 M 8.53125,119.67307 L 3.21875,119.67307 L 3.21875,118.84495 L 5.09375,118.84495 L 5.09375,116.55588 L 0,116.55588 L 0,115.70432 L 5.109375,107.79807 L 6.65625,107.79807 L 6.65625,115.71995 L 8.882812,115.71995 L 8.882812,116.55588 L 6.65625,116.55588 L 6.65625,118.84495 L 8.53125,118.84495 L 8.53125,119.67307 M 14.78125,119.1262 C 15.578119,119.1262 16.174473,118.6887 16.570312,117.8137 C 16.966138,116.9387 17.164055,115.61839 17.164062,113.85276 C 17.164055,112.08193 16.966138,110.75902 16.570312,109.88401 C 16.174473,109.00902 15.578119,108.57152 14.78125,108.57151 C 13.984371,108.57152 13.388017,109.00902 12.992187,109.88401 C 12.596351,110.75902 12.398435,112.08193 12.398437,113.85276 C 12.398435,115.61839 12.596351,116.9387 12.992187,117.8137 C 13.388017,118.6887 13.984371,119.1262 14.78125,119.1262 M 14.78125,119.89963 C 13.515621,119.89963 12.526039,119.36838 11.8125,118.30588 C 11.104165,117.24338 10.749999,115.75901 10.75,113.85276 C 10.749999,111.94131 11.104165,110.45433 11.8125,109.39182 C 12.526039,108.32933 13.515621,107.79808 14.78125,107.79807 C 16.052077,107.79808 17.041659,108.32933 17.75,109.39182 C 18.458324,110.45433 18.812491,111.94131 18.8125,113.85276 C 18.812491,115.75901 18.458324,117.24338 17.75,118.30588 C 17.041659,119.36838 16.052077,119.89963 14.78125,119.89963"
     style="font-size:16px;font-style:normal;font-variant:normal;font-weight:normal;font-stretch:normal;text-align:start;line-height:100%;writing-mode:lr-tb;text-anchor:start;fill:#000000;fill-opacity:1;fill-rule:evenodd;stroke:none;stroke-width:1;stroke-linecap:butt;stroke-linejoin:round;stroke-miterlimit:4;stroke-dashoffset:0;stroke-opacity:1;font-family:Serif"
     id="text4614" />
  <path
     d="M 7.736997,61.763459 L 7.736997,63.044709 L 2.393247,63.044709 L 2.393247,66.388459 C 2.664078,66.200969 2.979182,66.060349 3.33856,65.966589 C 3.703139,65.872849 4.109389,65.825969 4.55731,65.825959 C 5.817721,65.825969 6.812511,66.174929 7.541685,66.872839 C 8.270843,67.570759 8.635426,68.523879 8.635435,69.732209 C 8.635426,70.966589 8.265635,71.930129 7.52606,72.622839 C 6.791678,73.310339 5.757825,73.654089 4.424497,73.654089 C 3.888035,73.654089 3.338556,73.588979 2.77606,73.458779 C 2.213557,73.328569 1.638037,73.130649 1.049497,72.865029 L 1.049497,70.599399 L 1.93231,70.599399 C 1.979183,71.338989 2.213557,71.904089 2.635435,72.294709 C 3.062515,72.685339 3.658869,72.880649 4.424497,72.880649 C 5.247409,72.880649 5.88022,72.609819 6.322935,72.068149 C 6.765636,71.526489 6.98699,70.747839 6.986997,69.732209 C 6.98699,68.721799 6.765636,67.948359 6.322935,67.411899 C 5.885429,66.870239 5.252617,66.599409 4.424497,66.599399 C 3.955743,66.599409 3.541681,66.682739 3.18231,66.849399 C 2.82814,67.016069 2.513036,67.273889 2.236997,67.622839 L 1.565122,67.622839 L 1.565122,61.763459 L 7.736997,61.763459 M 14.96356,72.880649 C 15.760429,72.880649 16.356783,72.443149 16.752622,71.568149 C 17.148449,70.693149 17.346365,69.372839 17.346372,67.607209 C 17.346365,65.836389 17.148449,64.513469 16.752622,63.638459 C 16.356783,62.763469 15.760429,62.325969 14.96356,62.325959 C 14.166681,62.325969 13.570327,62.763469 13.174497,63.638459 C 12.778661,64.513469 12.580745,65.836389 12.580747,67.607209 C 12.580745,69.372839 12.778661,70.693149 13.174497,71.568149 C 13.570327,72.443149 14.166681,72.880649 14.96356,72.880649 M 14.96356,73.654089 C 13.697931,73.654089 12.708349,73.122839 11.99481,72.060339 C 11.286475,70.997839 10.932309,69.513469 10.93231,67.607209 C 10.932309,65.695759 11.286475,64.208779 11.99481,63.146279 C 12.708349,62.083789 13.697931,61.552539 14.96356,61.552529 C 16.234387,61.552539 17.223969,62.083789 17.93231,63.146279 C 18.640635,64.208779 18.994801,65.695759 18.99481,67.607209 C 18.994801,69.513469 18.640635,70.997839 17.93231,72.060339 C 17.223969,73.122839 16.234387,73.654089 14.96356,73.654089"
     style="font-size:16px;font-style:normal;font-variant:normal;font-weight:normal;font-stretch:normal;text-align:start;line-height:100%;writing-mode:lr-tb;text-anchor:start;fill:#000000;fill-opacity:1;fill-rule:evenodd;stroke:none;stroke-width:1;stroke-linecap:butt;stroke-linejoin:round;stroke-miterlimit:4;stroke-dashoffset:0;stroke-opacity:1;font-family:Serif"
     id="text4620" />
  <path
     d="M 4.802956,26.938953 C 5.537325,26.938954 6.102428,26.670725 6.498268,26.134266 C 6.894094,25.592601 7.09201,24.81656 7.092018,23.806141 C 7.09201,22.795729 6.894094,22.022292 6.498268,21.485828 C 6.102428,20.944168 5.537325,20.673335 4.802956,20.673328 C 4.058159,20.673335 3.490452,20.933752 3.099831,21.454578 C 2.709202,21.975417 2.51389,22.728021 2.513893,23.712391 C 2.51389,24.748852 2.711807,25.545726 3.107643,26.103016 C 3.503472,26.660308 4.068576,26.938954 4.802956,26.938953 M 2.256081,21.063953 C 2.610244,20.673335 3.011285,20.381669 3.459206,20.188953 C 3.907118,19.996253 4.412326,19.899899 4.974831,19.899891 C 6.136282,19.899899 7.052948,20.248857 7.724831,20.946766 C 8.401905,21.644688 8.740446,22.597813 8.740456,23.806141 C 8.740446,24.988435 8.375863,25.936351 7.646706,26.649891 C 6.92274,27.358229 5.953991,27.712389 4.740456,27.712389 C 3.422743,27.712389 2.409724,27.222809 1.701393,26.243641 C 0.993058,25.259268 0.638892,23.855624 0.638893,22.032703 C 0.638892,19.991044 1.058162,18.410317 1.896706,17.290516 C 2.735244,16.170736 3.917535,15.61084 5.443581,15.610828 C 5.855033,15.61084 6.287324,15.649903 6.740456,15.728016 C 7.193573,15.806153 7.657114,15.92334 8.131081,16.079578 L 8.131081,18.001453 L 7.248268,18.001453 C 7.18576,17.475422 6.98524,17.074381 6.646706,16.798328 C 6.308157,16.522298 5.852428,16.384277 5.279518,16.384266 C 4.269097,16.384277 3.516493,16.767089 3.021706,17.532703 C 2.526911,18.298338 2.271703,19.47542 2.256081,21.063953 M 14.842018,26.938953 C 15.638887,26.938954 16.235241,26.501454 16.631081,25.626453 C 17.026907,24.751456 17.224823,23.431145 17.224831,21.665516 C 17.224823,19.89469 17.026907,18.571775 16.631081,17.696766 C 16.235241,16.821777 15.638887,16.384277 14.842018,16.384266 C 14.045139,16.384277 13.448785,16.821777 13.052956,17.696766 C 12.657119,18.571775 12.459203,19.89469 12.459206,21.665516 C 12.459203,23.431145 12.657119,24.751456 13.052956,25.626453 C 13.448785,26.501454 14.045139,26.938954 14.842018,26.938953 M 14.842018,27.712389 C 13.576389,27.712389 12.586807,27.181139 11.873268,26.118641 C 11.164933,25.056143 10.810767,23.57177 10.810768,21.665516 C 10.810767,19.754065 11.164933,18.267088 11.873268,17.204578 C 12.586807,16.14209 13.576389,15.61084 14.842018,15.610828 C 16.112845,15.61084 17.102427,16.14209 17.810768,17.204578 C 18.519093,18.267088 18.873259,19.754065 18.873268,21.665516 C 18.873259,23.57177 18.519093,25.056143 17.810768,26.118641 C 17.102427,27.181139 16.112845,27.712389 14.842018,27.712389"
     style="font-size:16px;font-style:normal;font-variant:normal;font-weight:normal;font-stretch:normal;text-align:start;line-height:100%;writing-mode:lr-tb;text-anchor:start;fill:#000000;fill-opacity:1;fill-rule:evenodd;stroke:none;stroke-width:1;stroke-linecap:butt;stroke-linejoin:round;stroke-miterlimit:4;stroke-dashoffset:0;stroke-opacity:1;font-family:Serif"
     id="text4626" />
  <path
     d="M 508.23064,17.701954 L 508.23064,16.873829 L 509.80095,16.873829 L 509.80095,6.873829 L 508.23064,6.873829 L 508.23064,6.037891 L 511.22283,6.037891 L 518.21501,15.241016 L 518.21501,6.873829 L 516.65251,6.873829 L 516.65251,6.037891 L 520.74626,6.037891 L 520.74626,6.873829 L 519.17595,6.873829 L 519.17595,17.928516 L 518.23064,17.928516 L 510.76189,8.100391 L 510.76189,16.873829 L 512.3322,16.873829 L 512.3322,17.701954 L 508.23064,17.701954"
     style="font-size:16px;font-style:normal;font-variant:normal;font-weight:normal;font-stretch:normal;text-align:start;line-height:100%;writing-mode:lr-tb;text-anchor:start;fill:#000000;fill-opacity:1;fill-rule:evenodd;stroke:none;stroke-width:1;stroke-linecap:butt;stroke-linejoin:round;stroke-miterlimit:4;stroke-dashoffset:0;stroke-opacity:1;font-family:Serif"
     id="text4632" />
  <text
     x="477.90616"
     y="17.641178"
     style="font-size:16px;font-style:normal;font-variant:normal;font-weight:normal;font-stretch:normal;text-align:start;line-height:100%;writing-mode:lr-tb;text-anchor:start;opacity:1;fill:#000000;fill-opacity:1;fill-rule:evenodd;stroke:none;stroke-width:1;stroke-linecap:butt;stroke-linejoin:round;stroke-miterlimit:4;stroke-dasharray:none;stroke-dashoffset:0;stroke-opacity:1;font-family:Serif"
     id="text4638"
     xml:space="preserve"><tspan
       x="477.90616"
       y="17.641178"
       id="tspan4642">Pg</tspan></text>
  <path
     d="M 422.34765,17.877041 L 422.34765,17.048916 L 423.83202,17.048916 L 423.83202,7.048916 L 422.34765,7.048916 L 422.34765,6.212978 L 426.90233,6.212978 L 426.90233,7.048916 L 425.41796,7.048916 L 425.41796,11.462978 L 430.4414,7.048916 L 429.17577,7.048916 L 429.17577,6.212978 L 433.05077,6.212978 L 433.05077,7.048916 L 431.73827,7.048916 L 426.73046,11.447353 L 432.33202,17.048916 L 433.66015,17.048916 L 433.66015,17.877041 L 430.94921,17.877041 L 425.41796,12.337978 L 425.41796,17.048916 L 426.90233,17.048916 L 426.90233,17.877041 L 422.34765,17.877041"
     style="font-size:16px;font-style:normal;font-variant:normal;font-weight:normal;font-stretch:normal;text-align:start;line-height:100%;writing-mode:lr-tb;text-anchor:start;fill:#000000;fill-opacity:1;fill-rule:evenodd;stroke:none;stroke-width:1;stroke-linecap:butt;stroke-linejoin:round;stroke-miterlimit:4;stroke-dashoffset:0;stroke-opacity:1;font-family:Serif"
     id="text4644" />
  <path
     d="M 363.06337,20.749714 L 363.06337,18.913776 L 363.954,18.913776 C 363.96963,19.4294 364.09202,19.812212 364.32119,20.062214 C 364.55035,20.31742 364.8941,20.445024 365.35244,20.445026 C 365.97223,20.445024 366.40452,20.249712 366.64931,19.859089 C 366.8941,19.468462 367.0165,18.705442 367.0165,17.570026 L 367.0165,7.124714 L 365.204,7.124714 L 365.204,6.288776 L 370.08681,6.288776 L 370.08681,7.124714 L 368.60244,7.124714 L 368.60244,17.632526 C 368.60243,18.918984 368.34462,19.84867 367.829,20.421589 C 367.31337,20.994503 366.48264,21.280961 365.33681,21.280964 C 364.96702,21.280961 364.59202,21.23669 364.21181,21.148151 C 363.8264,21.059607 363.44358,20.926794 363.06337,20.749714"
     style="font-size:16px;font-style:normal;font-variant:normal;font-weight:normal;font-stretch:normal;text-align:start;line-height:100%;writing-mode:lr-tb;text-anchor:start;fill:#000000;fill-opacity:1;fill-rule:evenodd;stroke:none;stroke-width:1;stroke-linecap:butt;stroke-linejoin:round;stroke-miterlimit:4;stroke-dashoffset:0;stroke-opacity:1;font-family:Serif"
     id="text4650" />
  <path
     d="M 310.88849,17.831295 L 310.88849,17.00317 L 312.38068,17.00317 L 312.38068,7.09692 L 308.95099,7.09692 L 308.95099,8.917233 L 307.99005,8.917233 L 307.99005,6.167233 L 318.34943,6.167233 L 318.34943,8.917233 L 317.38849,8.917233 L 317.38849,7.09692 L 313.9588,7.09692 L 313.9588,17.00317 L 315.45099,17.00317 L 315.45099,17.831295 L 310.88849,17.831295 M 326.16974,9.510983 L 326.16974,11.589108 L 325.34162,11.589108 C 325.31557,11.177656 325.20098,10.870365 324.99787,10.667233 C 324.79473,10.464115 324.49786,10.362553 324.10724,10.362545 C 323.3989,10.362553 322.85463,10.607344 322.47443,11.09692 C 322.09942,11.58651 321.91193,12.289634 321.91193,13.206295 L 321.91193,17.00317 L 323.57599,17.00317 L 323.57599,17.831295 L 319.17755,17.831295 L 319.17755,17.00317 L 320.47443,17.00317 L 320.47443,10.34692 L 319.09943,10.34692 L 319.09943,9.526608 L 321.91193,9.526608 L 321.91193,11.00317 C 322.19317,10.425052 322.55515,9.99797 322.99787,9.72192 C 323.44057,9.440678 323.97963,9.300054 324.61505,9.300045 C 324.84942,9.300054 325.09421,9.318283 325.34943,9.354733 C 325.60984,9.391199 325.88328,9.443283 326.16974,9.510983"
     style="font-size:16px;font-style:normal;font-variant:normal;font-weight:normal;font-stretch:normal;text-align:start;line-height:100%;writing-mode:lr-tb;text-anchor:start;fill:#000000;fill-opacity:1;fill-rule:evenodd;stroke:none;stroke-width:1;stroke-linecap:butt;stroke-linejoin:round;stroke-miterlimit:4;stroke-dashoffset:0;stroke-opacity:1;font-family:Serif"
     id="text4656" />
  <path
     d="M 271.61851,11.893803 L 273.68101,11.893803 C 274.45704,11.893809 275.04819,11.685476 275.45444,11.268803 C 275.86069,10.846935 276.06381,10.240164 276.06382,9.44849 C 276.06381,8.651624 275.86069,8.044854 275.45444,7.628178 C 275.04819,7.211522 274.45704,7.003189 273.68101,7.003178 L 271.61851,7.003178 L 271.61851,11.893803 M 268.54819,17.831303 L 268.54819,17.003178 L 270.03257,17.003178 L 270.03257,7.003178 L 268.54819,7.003178 L 268.54819,6.16724 L 274.06382,6.16724 C 275.23048,6.167252 276.15496,6.464127 276.83726,7.057865 C 277.51954,7.646417 277.86068,8.443291 277.86069,9.44849 C 277.86068,10.448498 277.51954,11.245372 276.83726,11.839115 C 276.15496,12.432871 275.23048,12.729745 274.06382,12.72974 L 271.61851,12.72974 L 271.61851,17.003178 L 273.42319,17.003178 L 273.42319,17.831303 L 268.54819,17.831303"
     style="font-size:16px;font-style:normal;font-variant:normal;font-weight:normal;font-stretch:normal;text-align:start;line-height:100%;writing-mode:lr-tb;text-anchor:start;fill:#000000;fill-opacity:1;fill-rule:evenodd;stroke:none;stroke-width:1;stroke-linecap:butt;stroke-linejoin:round;stroke-miterlimit:4;stroke-dashoffset:0;stroke-opacity:1;font-family:Serif"
     id="text4662" />
  <path
     d="M 228.43951,14.866901 C 228.09575,15.955445 227.51763,16.780965 226.70514,17.343464 C 225.89784,17.900756 224.8744,18.179401 223.63482,18.179401 C 222.8744,18.179401 222.16867,18.049193 221.51764,17.788776 C 220.86659,17.52836 220.28847,17.145548 219.78326,16.640339 C 219.19993,16.057008 218.76503,15.39555 218.47857,14.655964 C 218.19732,13.911176 218.0567,13.070031 218.0567,12.132526 C 218.0567,10.320034 218.58013,8.859098 219.62701,7.749714 C 220.67388,6.635142 222.05409,6.077851 223.76764,6.077839 C 224.40304,6.077851 225.08013,6.161184 225.79889,6.327839 C 226.51763,6.494517 227.29106,6.747121 228.1192,7.085651 L 228.1192,9.773151 L 227.23639,9.773151 C 227.04367,8.793994 226.65565,8.072641 226.07232,7.609089 C 225.49419,7.145558 224.68169,6.913787 223.63482,6.913776 C 222.39003,6.913787 221.44732,7.356495 220.8067,8.241901 C 220.16607,9.122119 219.84576,10.418992 219.84576,12.132526 C 219.84576,13.840864 220.16607,15.137738 220.8067,16.023151 C 221.44732,16.903361 222.39003,17.343465 223.63482,17.343464 C 224.50461,17.343465 225.22075,17.137736 225.78326,16.726276 C 226.34575,16.309611 226.752,15.68982 227.00201,14.866901 L 228.43951,14.866901"
     style="font-size:16px;font-style:normal;font-variant:normal;font-weight:normal;font-stretch:normal;text-align:start;line-height:100%;writing-mode:lr-tb;text-anchor:start;fill:#000000;fill-opacity:1;fill-rule:evenodd;stroke:none;stroke-width:1;stroke-linecap:butt;stroke-linejoin:round;stroke-miterlimit:4;stroke-dashoffset:0;stroke-opacity:1;font-family:Serif"
     id="text4668" />
  <path
     d="M 166.90338,17.124714 L 168.3565,17.124714 C 169.87212,17.124715 171.03358,16.692424 171.84088,15.827839 C 172.65337,14.963259 173.05962,13.723677 173.05963,12.109089 C 173.05962,10.494513 172.65597,9.260139 171.84869,8.405964 C 171.04139,7.551808 169.87733,7.124725 168.3565,7.124714 L 166.90338,7.124714 L 166.90338,17.124714 M 163.83307,17.952839 L 163.83307,17.124714 L 165.31744,17.124714 L 165.31744,7.124714 L 163.83307,7.124714 L 163.83307,6.288776 L 168.47369,6.288776 C 170.4841,6.288788 172.0492,6.801808 173.169,7.827839 C 174.29399,8.85389 174.85649,10.280972 174.8565,12.109089 C 174.85649,13.942426 174.29399,15.374717 173.169,16.405964 C 172.04399,17.437214 170.47889,17.952839 168.47369,17.952839 L 163.83307,17.952839"
     style="font-size:16px;font-style:normal;font-variant:normal;font-weight:normal;font-stretch:normal;text-align:start;line-height:100%;writing-mode:lr-tb;text-anchor:start;fill:#000000;fill-opacity:1;fill-rule:evenodd;stroke:none;stroke-width:1;stroke-linecap:butt;stroke-linejoin:round;stroke-miterlimit:4;stroke-dashoffset:0;stroke-opacity:1;font-family:Serif"
     id="text4674" />
  <path
     d="M 126.95536,17.147266 L 126.95536,14.491016 L 127.85379,14.498829 C 127.87983,15.384248 128.13504,16.040497 128.61942,16.467579 C 129.109,16.889455 129.85119,17.100392 130.84598,17.100391 C 131.77306,17.100392 132.47879,16.918101 132.96317,16.553516 C 133.45274,16.183726 133.69754,15.647269 133.69754,14.944141 C 133.69754,14.381645 133.5491,13.949354 133.25223,13.647266 C 132.96056,13.345187 132.34077,13.050917 131.39286,12.764454 L 129.85379,12.303516 C 128.73921,11.964981 127.95275,11.543106 127.49442,11.037891 C 127.04129,10.53269 126.81473,9.839983 126.81473,8.959766 C 126.81473,7.970193 127.16629,7.201964 127.86942,6.655079 C 128.57254,6.108216 129.55952,5.834778 130.83036,5.834766 C 131.37202,5.834778 131.96577,5.894674 132.61161,6.014454 C 133.25743,6.129049 133.94493,6.29832 134.67411,6.522266 L 134.67411,9.006641 L 133.79129,9.006641 C 133.70274,8.183734 133.4267,7.589985 132.96317,7.225391 C 132.50483,6.855611 131.80431,6.670715 130.86161,6.670704 C 130.03869,6.670715 129.41108,6.839986 128.97879,7.178516 C 128.55171,7.51186 128.33817,7.998839 128.33817,8.639454 C 128.33817,9.196754 128.49962,9.634254 128.82254,9.951954 C 129.14546,10.26967 129.83035,10.584774 130.87723,10.897266 L 132.32254,11.326954 C 133.37983,11.644668 134.13243,12.050918 134.58036,12.545704 C 135.03347,13.035292 135.26003,13.694145 135.26004,14.522266 C 135.26003,15.652477 134.89806,16.504038 134.17411,17.076954 C 133.45014,17.649871 132.37202,17.936329 130.93973,17.936329 C 130.2991,17.936329 129.64546,17.871225 128.97879,17.741016 C 128.31733,17.610808 127.64285,17.412892 126.95536,17.147266"
     style="font-size:16px;font-style:normal;font-variant:normal;font-weight:normal;font-stretch:normal;text-align:start;line-height:100%;writing-mode:lr-tb;text-anchor:start;fill:#000000;fill-opacity:1;fill-rule:evenodd;stroke:none;stroke-width:1;stroke-linecap:butt;stroke-linejoin:round;stroke-miterlimit:4;stroke-dashoffset:0;stroke-opacity:1;font-family:Serif"
     id="text4680" />
  <path
     d="M 97.795373,17.161152 C 99.071413,17.161153 100.03495,16.723653 100.686,15.848652 C 101.33703,14.968446 101.66255,13.668969 101.66256,11.950214 C 101.66255,10.226264 101.33703,8.926786 100.686,8.051777 C 100.03495,7.171579 99.071413,6.731475 97.795373,6.731464 C 96.514123,6.731475 95.547973,7.171579 94.896943,8.051777 C 94.245893,8.926786 93.920373,10.226264 93.920373,11.950214 C 93.920373,13.668969 94.245893,14.968446 94.896943,15.848652 C 95.547973,16.723653 96.514123,17.161153 97.795373,17.161152 M 97.795373,17.997089 C 97.003703,17.997089 96.274533,17.866881 95.607873,17.606464 C 94.946413,17.346048 94.363083,16.963236 93.857873,16.458027 C 93.274543,15.874696 92.839643,15.213238 92.553193,14.473652 C 92.271933,13.734073 92.131313,12.892928 92.131313,11.950214 C 92.131313,11.007513 92.271933,10.166368 92.553193,9.426777 C 92.839643,8.681994 93.274543,8.017933 93.857873,7.434589 C 94.368293,6.924184 94.951623,6.541372 95.607873,6.286152 C 96.264123,6.025747 96.993283,5.895539 97.795373,5.895527 C 99.488073,5.895539 100.85526,6.450226 101.89694,7.559589 C 102.93859,8.668974 103.45942,10.132514 103.45944,11.950214 C 103.45942,12.882511 103.31619,13.723656 103.02975,14.473652 C 102.74328,15.218446 102.30838,15.879904 101.72506,16.458027 C 101.21463,16.968444 100.6313,17.353861 99.975063,17.614277 C 99.318803,17.869485 98.592243,17.997089 97.795373,17.997089"
     style="font-size:16px;font-style:normal;font-variant:normal;font-weight:normal;font-stretch:normal;text-align:start;line-height:100%;writing-mode:lr-tb;text-anchor:start;fill:#000000;fill-opacity:1;fill-rule:evenodd;stroke:none;stroke-width:1;stroke-linecap:butt;stroke-linejoin:round;stroke-miterlimit:4;stroke-dashoffset:0;stroke-opacity:1;font-family:Serif"
     id="text4686" />
  <path
     d="M 49.266602,14.866901 C 48.922842,15.955445 48.344712,16.780965 47.532222,17.343464 C 46.724922,17.900756 45.701492,18.179401 44.461912,18.179401 C 43.701492,18.179401 42.995762,18.049193 42.344721,17.788776 C 41.693681,17.52836 41.115551,17.145548 40.610351,16.640339 C 40.027011,16.057008 39.592121,15.39555 39.305661,14.655964 C 39.024411,13.911176 38.883781,13.070031 38.883791,12.132526 C 38.883781,10.320034 39.407221,8.859098 40.454101,7.749714 C 41.500971,6.635142 42.881182,6.077851 44.594722,6.077839 C 45.230132,6.077851 45.907222,6.161184 46.625972,6.327839 C 47.344712,6.494517 48.118152,6.747121 48.946292,7.085651 L 48.946292,9.773151 L 48.063472,9.773151 C 47.870752,8.793994 47.482732,8.072641 46.899412,7.609089 C 46.321282,7.145558 45.508782,6.913787 44.461912,6.913776 C 43.217112,6.913787 42.274411,7.356495 41.633791,8.241901 C 40.993161,9.122119 40.672851,10.418992 40.672851,12.132526 C 40.672851,13.840864 40.993161,15.137738 41.633791,16.023151 C 42.274411,16.903361 43.217112,17.343465 44.461912,17.343464 C 45.331692,17.343465 46.047842,17.137736 46.610352,16.726276 C 47.172842,16.309611 47.579092,15.68982 47.829102,14.866901 L 49.266602,14.866901 M 58.524412,11.265339 C 58.800442,10.655971 59.152012,10.197638 59.579102,9.890339 C 60.011382,9.577847 60.513982,9.421597 61.086912,9.421589 C 61.956692,9.421597 62.605132,9.692431 63.032222,10.234089 C 63.459292,10.770554 63.672832,11.583054 63.672852,12.671589 L 63.672852,17.124714 L 64.969722,17.124714 L 64.969722,17.952839 L 60.985352,17.952839 L 60.985352,17.124714 L 62.235352,17.124714 L 62.235352,12.835651 C 62.235342,11.986699 62.110342,11.382533 61.860352,11.023151 C 61.610342,10.663784 61.196272,10.484096 60.618162,10.484089 C 59.977532,10.484096 59.487942,10.726284 59.149412,11.210651 C 58.816072,11.695033 58.649402,12.400761 58.649412,13.327839 L 58.649412,17.124714 L 59.899412,17.124714 L 59.899412,17.952839 L 55.961912,17.952839 L 55.961912,17.124714 L 57.211912,17.124714 L 57.211912,12.780964 C 57.211902,11.952845 57.086902,11.364304 56.836912,11.015339 C 56.586902,10.66118 56.172842,10.484096 55.594722,10.484089 C 54.954092,10.484096 54.464512,10.726284 54.125972,11.210651 C 53.792642,11.695033 53.625972,12.400761 53.625972,13.327839 L 53.625972,17.124714 L 54.875972,17.124714 L 54.875972,17.952839 L 50.891602,17.952839 L 50.891602,17.124714 L 52.188472,17.124714 L 52.188472,10.468464 L 50.813472,10.468464 L 50.813472,9.648151 L 53.625972,9.648151 L 53.625972,11.124714 C 53.891592,10.572638 54.230142,10.150763 54.641602,9.859089 C 55.053052,9.567431 55.519202,9.421597 56.040042,9.421589 C 56.685862,9.421597 57.224922,9.583056 57.657222,9.905964 C 58.089512,10.22368 58.378572,10.676805 58.524412,11.265339"
     style="font-size:16px;font-style:normal;font-variant:normal;font-weight:normal;font-stretch:normal;text-align:start;line-height:100%;writing-mode:lr-tb;text-anchor:start;fill:#000000;fill-opacity:1;fill-rule:evenodd;stroke:none;stroke-width:1;stroke-linecap:butt;stroke-linejoin:round;stroke-miterlimit:4;stroke-dashoffset:0;stroke-opacity:1;font-family:Serif"
     id="text4692" />
  <path
     d="M 504.33907,1.498997 L 504.33907,21.66805"
     style="opacity:1;color:#000000;fill:none;fill-opacity:1;fill-rule:evenodd;stroke:#000000;stroke-width:2;stroke-linecap:round;stroke-linejoin:miter;marker:none;marker-start:none;marker-mid:none;marker-end:none;stroke-miterlimit:4;stroke-dasharray:none;stroke-dashoffset:0;stroke-opacity:1;visibility:visible;display:inline;overflow:visible"
     id="path4705" />
  <path
     d="M 465.83622,1.6186 L 465.83622,21.787653"
     style="opacity:1;color:#000000;fill:none;fill-opacity:1;fill-rule:evenodd;stroke:#000000;stroke-width:2;stroke-linecap:round;stroke-linejoin:miter;marker:none;marker-start:none;marker-mid:none;marker-end:none;stroke-miterlimit:4;stroke-dasharray:none;stroke-dashoffset:0;stroke-opacity:1;visibility:visible;display:inline;overflow:visible"
     id="path4707" />
  <path
     d="M 392.29345,1.198355 L 392.29345,21.367408"
     style="opacity:1;color:#000000;fill:none;fill-opacity:1;fill-rule:evenodd;stroke:#000000;stroke-width:2;stroke-linecap:round;stroke-linejoin:miter;marker:none;marker-start:none;marker-mid:none;marker-end:none;stroke-miterlimit:4;stroke-dasharray:none;stroke-dashoffset:0;stroke-opacity:1;visibility:visible;display:inline;overflow:visible"
     id="path4709" />
  <path
     d="M 342.70462,1.6186 L 342.70462,21.787653"
     style="opacity:1;color:#000000;fill:none;fill-opacity:1;fill-rule:evenodd;stroke:#000000;stroke-width:2;stroke-linecap:round;stroke-linejoin:miter;marker:none;marker-start:none;marker-mid:none;marker-end:none;stroke-miterlimit:4;stroke-dasharray:none;stroke-dashoffset:0;stroke-opacity:1;visibility:visible;display:inline;overflow:visible"
     id="path4711" />
  <path
     d="M 295.28705,1.478519 L 295.28705,21.647572"
     style="opacity:1;color:#000000;fill:none;fill-opacity:1;fill-rule:evenodd;stroke:#000000;stroke-width:2;stroke-linecap:round;stroke-linejoin:miter;marker:none;marker-start:none;marker-mid:none;marker-end:none;stroke-miterlimit:4;stroke-dasharray:none;stroke-dashoffset:0;stroke-opacity:1;visibility:visible;display:inline;overflow:visible"
     id="path4713" />
  <path
     d="M 251.5116,1.338437 L 251.5116,21.50749"
     style="opacity:1;color:#000000;fill:none;fill-opacity:1;fill-rule:evenodd;stroke:#000000;stroke-width:2;stroke-linecap:round;stroke-linejoin:miter;marker:none;marker-start:none;marker-mid:none;marker-end:none;stroke-miterlimit:4;stroke-dasharray:none;stroke-dashoffset:0;stroke-opacity:1;visibility:visible;display:inline;overflow:visible"
     id="path4715" />
  <path
     d="M 196.24947,1.268397 L 196.24947,21.43745"
     style="opacity:1;color:#000000;fill:none;fill-opacity:1;fill-rule:evenodd;stroke:#000000;stroke-width:2;stroke-linecap:round;stroke-linejoin:miter;marker:none;marker-start:none;marker-mid:none;marker-end:none;stroke-miterlimit:4;stroke-dasharray:none;stroke-dashoffset:0;stroke-opacity:1;visibility:visible;display:inline;overflow:visible"
     id="path4717" />
  <path
     d="M 144.06913,1.338437 L 144.06913,21.50749"
     style="opacity:1;color:#000000;fill:none;fill-opacity:1;fill-rule:evenodd;stroke:#000000;stroke-width:2;stroke-linecap:round;stroke-linejoin:miter;marker:none;marker-start:none;marker-mid:none;marker-end:none;stroke-miterlimit:4;stroke-dasharray:none;stroke-dashoffset:0;stroke-opacity:1;visibility:visible;display:inline;overflow:visible"
     id="path4719" />
  <path
     d="M 118.71439,1.268397 L 118.71439,21.43745"
     style="opacity:1;color:#000000;fill:none;fill-opacity:1;fill-rule:evenodd;stroke:#000000;stroke-width:2;stroke-linecap:round;stroke-linejoin:miter;marker:none;marker-start:none;marker-mid:none;marker-end:none;stroke-miterlimit:4;stroke-dasharray:none;stroke-dashoffset:0;stroke-opacity:1;visibility:visible;display:inline;overflow:visible"
     id="path4721" />
  <path
     d="M 77.950683,1.338438 L 77.950683,21.507491"
     style="opacity:1;color:#000000;fill:none;fill-opacity:1;fill-rule:evenodd;stroke:#000000;stroke-width:2;stroke-linecap:round;stroke-linejoin:miter;marker:none;marker-start:none;marker-mid:none;marker-end:none;stroke-miterlimit:4;stroke-dasharray:none;stroke-dashoffset:0;stroke-opacity:1;visibility:visible;display:inline;overflow:visible"
     id="path4723" />
  <path
     d="M 478.05645,311.38093 L 478.05645,312.66218 L 472.7127,312.66218 L 472.7127,316.00593 C 472.98353,315.81843 473.29864,315.67781 473.65801,315.58405 C 474.02259,315.49031 474.42884,315.44343 474.87676,315.44343 C 476.13717,315.44343 477.13196,315.79239 477.86114,316.4903 C 478.5903,317.18822 478.95488,318.14135 478.95489,319.34968 C 478.95488,320.58405 478.58509,321.54759 477.84551,322.2403 C 477.11113,322.9278 476.07728,323.27155 474.74395,323.27155 C 474.20749,323.27155 473.65801,323.20645 473.09551,323.07624 C 472.53301,322.94603 471.95749,322.74811 471.36895,322.48249 L 471.36895,320.21686 L 472.25176,320.21686 C 472.29864,320.95645 472.53301,321.52155 472.95489,321.91218 C 473.38197,322.3028 473.97832,322.49811 474.74395,322.49811 C 475.56686,322.49811 476.19967,322.22728 476.64239,321.68561 C 477.08509,321.14395 477.30644,320.3653 477.30645,319.34968 C 477.30644,318.33926 477.08509,317.56583 476.64239,317.02936 C 476.20488,316.4877 475.57207,316.21687 474.74395,316.21686 C 474.2752,316.21687 473.86113,316.3002 473.50176,316.46686 C 473.14759,316.63354 472.83249,316.89135 472.55645,317.2403 L 471.88458,317.2403 L 471.88458,311.38093 L 478.05645,311.38093 M 485.28301,322.49811 C 486.07988,322.49811 486.67624,322.06061 487.07207,321.18561 C 487.4679,320.31062 487.66582,318.9903 487.66582,317.22468 C 487.66582,315.45385 487.4679,314.13093 487.07207,313.25593 C 486.67624,312.38094 486.07988,311.94344 485.28301,311.94343 C 484.48613,311.94344 483.88978,312.38094 483.49395,313.25593 C 483.09811,314.13093 482.9002,315.45385 482.9002,317.22468 C 482.9002,318.9903 483.09811,320.31062 483.49395,321.18561 C 483.88978,322.06061 484.48613,322.49811 485.28301,322.49811 M 485.28301,323.27155 C 484.01738,323.27155 483.0278,322.7403 482.31426,321.6778 C 481.60593,320.6153 481.25176,319.13093 481.25176,317.22468 C 481.25176,315.31322 481.60593,313.82625 482.31426,312.76374 C 483.0278,311.70125 484.01738,311.17 485.28301,311.16999 C 486.55384,311.17 487.54342,311.70125 488.25176,312.76374 C 488.96009,313.82625 489.31425,315.31322 489.31426,317.22468 C 489.31425,319.13093 488.96009,320.6153 488.25176,321.6778 C 487.54342,322.7403 486.55384,323.27155 485.28301,323.27155"
     style="font-size:16px;font-style:normal;font-variant:normal;font-weight:normal;font-stretch:normal;text-align:start;line-height:100%;writing-mode:lr-tb;text-anchor:start;fill:#000000;fill-opacity:1;fill-rule:evenodd;stroke:none;stroke-width:1;stroke-linecap:butt;stroke-linejoin:round;stroke-miterlimit:4;stroke-dashoffset:0;stroke-opacity:1;font-family:Serif"
     id="text4725" />
  <path
     d="M 419.96066,323.60532 L 419.96066,322.7772 L 421.99191,322.7772 L 421.99191,313.07407 L 419.64035,314.59751 L 419.64035,313.57407 L 422.4841,311.73032 L 423.56222,311.73032 L 423.56222,322.7772 L 425.59347,322.7772 L 425.59347,323.60532 L 419.96066,323.60532 M 432.96066,323.05845 C 433.75753,323.05845 434.35388,322.62095 434.74972,321.74595 C 435.14555,320.87095 435.34347,319.55064 435.34347,317.78501 C 435.34347,316.01418 435.14555,314.69127 434.74972,313.81626 C 434.35388,312.94127 433.75753,312.50377 432.96066,312.50376 C 432.16378,312.50377 431.56743,312.94127 431.1716,313.81626 C 430.77576,314.69127 430.57785,316.01418 430.57785,317.78501 C 430.57785,319.55064 430.77576,320.87095 431.1716,321.74595 C 431.56743,322.62095 432.16378,323.05845 432.96066,323.05845 M 432.96066,323.83188 C 431.69503,323.83188 430.70545,323.30063 429.99191,322.23813 C 429.28358,321.17564 428.92941,319.69126 428.92941,317.78501 C 428.92941,315.87356 429.28358,314.38658 429.99191,313.32407 C 430.70545,312.26158 431.69503,311.73033 432.96066,311.73032 C 434.23149,311.73033 435.22107,312.26158 435.92941,313.32407 C 436.63774,314.38658 436.9919,315.87356 436.99191,317.78501 C 436.9919,319.69126 436.63774,321.17564 435.92941,322.23813 C 435.22107,323.30063 434.23149,323.83188 432.96066,323.83188 M 443.14816,323.05845 C 443.94503,323.05845 444.54138,322.62095 444.93722,321.74595 C 445.33305,320.87095 445.53097,319.55064 445.53097,317.78501 C 445.53097,316.01418 445.33305,314.69127 444.93722,313.81626 C 444.54138,312.94127 443.94503,312.50377 443.14816,312.50376 C 442.35128,312.50377 441.75493,312.94127 441.3591,313.81626 C 440.96326,314.69127 440.76535,316.01418 440.76535,317.78501 C 440.76535,319.55064 440.96326,320.87095 441.3591,321.74595 C 441.75493,322.62095 442.35128,323.05845 443.14816,323.05845 M 443.14816,323.83188 C 441.88253,323.83188 440.89295,323.30063 440.17941,322.23813 C 439.47108,321.17564 439.11691,319.69126 439.11691,317.78501 C 439.11691,315.87356 439.47108,314.38658 440.17941,313.32407 C 440.89295,312.26158 441.88253,311.73033 443.14816,311.73032 C 444.41899,311.73033 445.40857,312.26158 446.11691,313.32407 C 446.82524,314.38658 447.1794,315.87356 447.17941,317.78501 C 447.1794,319.69126 446.82524,321.17564 446.11691,322.23813 C 445.40857,323.30063 444.41899,323.83188 443.14816,323.83188"
     style="font-size:16px;font-style:normal;font-variant:normal;font-weight:normal;font-stretch:normal;text-align:start;line-height:100%;writing-mode:lr-tb;text-anchor:start;fill:#000000;fill-opacity:1;fill-rule:evenodd;stroke:none;stroke-width:1;stroke-linecap:butt;stroke-linejoin:round;stroke-miterlimit:4;stroke-dashoffset:0;stroke-opacity:1;font-family:Serif"
     id="text4731" />
  <path
     d="M 374.36163,323.60532 L 374.36163,322.7772 L 376.39288,322.7772 L 376.39288,313.07407 L 374.04132,314.59751 L 374.04132,313.57407 L 376.88507,311.73032 L 377.96319,311.73032 L 377.96319,322.7772 L 379.99444,322.7772 L 379.99444,323.60532 L 374.36163,323.60532 M 390.32257,311.94126 L 390.32257,313.22251 L 384.97882,313.22251 L 384.97882,316.56626 C 385.24965,316.37877 385.56475,316.23814 385.92413,316.14438 C 386.28871,316.05064 386.69496,316.00377 387.14288,316.00376 C 388.40329,316.00377 389.39808,316.35272 390.12726,317.05063 C 390.85641,317.74856 391.221,318.70168 391.22101,319.91001 C 391.221,321.14439 390.85121,322.10793 390.11163,322.80063 C 389.37725,323.48813 388.3434,323.83188 387.01007,323.83188 C 386.47361,323.83188 385.92413,323.76678 385.36163,323.63657 C 384.79913,323.50636 384.22361,323.30845 383.63507,323.04282 L 383.63507,320.7772 L 384.51788,320.7772 C 384.56475,321.51678 384.79913,322.08189 385.22101,322.47251 C 385.64809,322.86313 386.24444,323.05845 387.01007,323.05845 C 387.83298,323.05845 388.46579,322.78761 388.90851,322.24595 C 389.35121,321.70428 389.57256,320.92564 389.57257,319.91001 C 389.57256,318.8996 389.35121,318.12616 388.90851,317.5897 C 388.471,317.04804 387.83819,316.7772 387.01007,316.7772 C 386.54131,316.7772 386.12725,316.86054 385.76788,317.0272 C 385.41371,317.19387 385.09861,317.45168 384.82257,317.80063 L 384.15069,317.80063 L 384.15069,311.94126 L 390.32257,311.94126 M 397.54913,323.05845 C 398.346,323.05845 398.94235,322.62095 399.33819,321.74595 C 399.73402,320.87095 399.93194,319.55064 399.93194,317.78501 C 399.93194,316.01418 399.73402,314.69127 399.33819,313.81626 C 398.94235,312.94127 398.346,312.50377 397.54913,312.50376 C 396.75225,312.50377 396.1559,312.94127 395.76007,313.81626 C 395.36423,314.69127 395.16632,316.01418 395.16632,317.78501 C 395.16632,319.55064 395.36423,320.87095 395.76007,321.74595 C 396.1559,322.62095 396.75225,323.05845 397.54913,323.05845 M 397.54913,323.83188 C 396.2835,323.83188 395.29392,323.30063 394.58038,322.23813 C 393.87205,321.17564 393.51788,319.69126 393.51788,317.78501 C 393.51788,315.87356 393.87205,314.38658 394.58038,313.32407 C 395.29392,312.26158 396.2835,311.73033 397.54913,311.73032 C 398.81996,311.73033 399.80954,312.26158 400.51788,313.32407 C 401.22621,314.38658 401.58037,315.87356 401.58038,317.78501 C 401.58037,319.69126 401.22621,321.17564 400.51788,322.23813 C 399.80954,323.30063 398.81996,323.83188 397.54913,323.83188"
     style="font-size:16px;font-style:normal;font-variant:normal;font-weight:normal;font-stretch:normal;text-align:start;line-height:100%;writing-mode:lr-tb;text-anchor:start;fill:#000000;fill-opacity:1;fill-rule:evenodd;stroke:none;stroke-width:1;stroke-linecap:butt;stroke-linejoin:round;stroke-miterlimit:4;stroke-dashoffset:0;stroke-opacity:1;font-family:Serif"
     id="text4737" />
  <path
     d="M 329.89604,314.72251 L 329.02104,314.72251 L 329.02104,312.64438 C 329.57833,312.34752 330.13822,312.12096 330.70072,311.9647 C 331.26843,311.80846 331.82311,311.73033 332.36479,311.73032 C 333.57832,311.73033 334.53665,312.0246 335.23979,312.61313 C 335.9429,313.20169 336.29446,314.00116 336.29447,315.01157 C 336.29446,316.1522 335.49759,317.51679 333.90385,319.10532 C 333.77884,319.22512 333.68509,319.31626 333.6226,319.37876 L 330.67729,322.32407 L 335.54447,322.32407 L 335.54447,320.88657 L 336.45854,320.88657 L 336.45854,323.60532 L 328.9351,323.60532 L 328.9351,322.75376 L 332.47416,319.22251 C 333.2554,318.44126 333.8127,317.72512 334.14604,317.07407 C 334.47936,316.41783 334.64603,315.73033 334.64604,315.01157 C 334.64603,314.22512 334.4403,313.61054 334.02885,313.16782 C 333.62259,312.72512 333.06009,312.50377 332.34135,312.50376 C 331.59655,312.50377 331.02103,312.68867 330.61479,313.05845 C 330.20853,313.42825 329.96895,313.98293 329.89604,314.72251 M 343.1226,323.05845 C 343.91947,323.05845 344.51582,322.62095 344.91166,321.74595 C 345.30749,320.87095 345.5054,319.55064 345.50541,317.78501 C 345.5054,316.01418 345.30749,314.69127 344.91166,313.81626 C 344.51582,312.94127 343.91947,312.50377 343.1226,312.50376 C 342.32572,312.50377 341.72936,312.94127 341.33354,313.81626 C 340.9377,314.69127 340.73978,316.01418 340.73979,317.78501 C 340.73978,319.55064 340.9377,320.87095 341.33354,321.74595 C 341.72936,322.62095 342.32572,323.05845 343.1226,323.05845 M 343.1226,323.83188 C 341.85697,323.83188 340.86739,323.30063 340.15385,322.23813 C 339.44551,321.17564 339.09135,319.69126 339.09135,317.78501 C 339.09135,315.87356 339.44551,314.38658 340.15385,313.32407 C 340.86739,312.26158 341.85697,311.73033 343.1226,311.73032 C 344.39342,311.73033 345.38301,312.26158 346.09135,313.32407 C 346.79967,314.38658 347.15384,315.87356 347.15385,317.78501 C 347.15384,319.69126 346.79967,321.17564 346.09135,322.23813 C 345.38301,323.30063 344.39342,323.83188 343.1226,323.83188 M 353.3101,323.05845 C 354.10697,323.05845 354.70332,322.62095 355.09916,321.74595 C 355.49499,320.87095 355.6929,319.55064 355.69291,317.78501 C 355.6929,316.01418 355.49499,314.69127 355.09916,313.81626 C 354.70332,312.94127 354.10697,312.50377 353.3101,312.50376 C 352.51322,312.50377 351.91686,312.94127 351.52104,313.81626 C 351.1252,314.69127 350.92728,316.01418 350.92729,317.78501 C 350.92728,319.55064 351.1252,320.87095 351.52104,321.74595 C 351.91686,322.62095 352.51322,323.05845 353.3101,323.05845 M 353.3101,323.83188 C 352.04447,323.83188 351.05489,323.30063 350.34135,322.23813 C 349.63301,321.17564 349.27885,319.69126 349.27885,317.78501 C 349.27885,315.87356 349.63301,314.38658 350.34135,313.32407 C 351.05489,312.26158 352.04447,311.73033 353.3101,311.73032 C 354.58092,311.73033 355.57051,312.26158 356.27885,313.32407 C 356.98717,314.38658 357.34134,315.87356 357.34135,317.78501 C 357.34134,319.69126 356.98717,321.17564 356.27885,322.23813 C 355.57051,323.30063 354.58092,323.83188 353.3101,323.83188"
     style="font-size:16px;font-style:normal;font-variant:normal;font-weight:normal;font-stretch:normal;text-align:start;line-height:100%;writing-mode:lr-tb;text-anchor:start;fill:#000000;fill-opacity:1;fill-rule:evenodd;stroke:none;stroke-width:1;stroke-linecap:butt;stroke-linejoin:round;stroke-miterlimit:4;stroke-dashoffset:0;stroke-opacity:1;font-family:Serif"
     id="text4743" />
  <path
     d="M 282.9554,314.72251 L 282.0804,314.72251 L 282.0804,312.64438 C 282.63769,312.34752 283.19759,312.12096 283.76009,311.9647 C 284.3278,311.80846 284.88248,311.73033 285.42415,311.73032 C 286.63769,311.73033 287.59602,312.0246 288.29915,312.61313 C 289.00227,313.20169 289.35383,314.00116 289.35384,315.01157 C 289.35383,316.1522 288.55696,317.51679 286.96322,319.10532 C 286.83821,319.22512 286.74446,319.31626 286.68197,319.37876 L 283.73665,322.32407 L 288.60384,322.32407 L 288.60384,320.88657 L 289.5179,320.88657 L 289.5179,323.60532 L 281.99447,323.60532 L 281.99447,322.75376 L 285.53353,319.22251 C 286.31477,318.44126 286.87206,317.72512 287.2054,317.07407 C 287.53873,316.41783 287.7054,315.73033 287.7054,315.01157 C 287.7054,314.22512 287.49967,313.61054 287.08822,313.16782 C 286.68196,312.72512 286.11946,312.50377 285.40072,312.50376 C 284.65592,312.50377 284.0804,312.68867 283.67415,313.05845 C 283.2679,313.42825 283.02832,313.98293 282.9554,314.72251 M 299.1429,311.94126 L 299.1429,313.22251 L 293.79915,313.22251 L 293.79915,316.56626 C 294.06998,316.37877 294.38509,316.23814 294.74447,316.14438 C 295.10905,316.05064 295.51529,316.00377 295.96322,316.00376 C 297.22363,316.00377 298.21842,316.35272 298.94759,317.05063 C 299.67675,317.74856 300.04133,318.70168 300.04134,319.91001 C 300.04133,321.14439 299.67154,322.10793 298.93197,322.80063 C 298.19758,323.48813 297.16373,323.83188 295.8304,323.83188 C 295.29394,323.83188 294.74446,323.76678 294.18197,323.63657 C 293.61946,323.50636 293.04394,323.30845 292.4554,323.04282 L 292.4554,320.7772 L 293.33822,320.7772 C 293.38509,321.51678 293.61946,322.08189 294.04134,322.47251 C 294.46842,322.86313 295.06477,323.05845 295.8304,323.05845 C 296.65331,323.05845 297.28613,322.78761 297.72884,322.24595 C 298.17154,321.70428 298.3929,320.92564 298.3929,319.91001 C 298.3929,318.8996 298.17154,318.12616 297.72884,317.5897 C 297.29133,317.04804 296.65852,316.7772 295.8304,316.7772 C 295.36165,316.7772 294.94759,316.86054 294.58822,317.0272 C 294.23405,317.19387 293.91894,317.45168 293.6429,317.80063 L 292.97103,317.80063 L 292.97103,311.94126 L 299.1429,311.94126 M 306.36947,323.05845 C 307.16634,323.05845 307.76269,322.62095 308.15853,321.74595 C 308.55435,320.87095 308.75227,319.55064 308.75228,317.78501 C 308.75227,316.01418 308.55435,314.69127 308.15853,313.81626 C 307.76269,312.94127 307.16634,312.50377 306.36947,312.50376 C 305.57259,312.50377 304.97623,312.94127 304.5804,313.81626 C 304.18457,314.69127 303.98665,316.01418 303.98665,317.78501 C 303.98665,319.55064 304.18457,320.87095 304.5804,321.74595 C 304.97623,322.62095 305.57259,323.05845 306.36947,323.05845 M 306.36947,323.83188 C 305.10384,323.83188 304.11425,323.30063 303.40072,322.23813 C 302.69238,321.17564 302.33821,319.69126 302.33822,317.78501 C 302.33821,315.87356 302.69238,314.38658 303.40072,313.32407 C 304.11425,312.26158 305.10384,311.73033 306.36947,311.73032 C 307.64029,311.73033 308.62988,312.26158 309.33822,313.32407 C 310.04654,314.38658 310.40071,315.87356 310.40072,317.78501 C 310.40071,319.69126 310.04654,321.17564 309.33822,322.23813 C 308.62988,323.30063 307.64029,323.83188 306.36947,323.83188"
     style="font-size:16px;font-style:normal;font-variant:normal;font-weight:normal;font-stretch:normal;text-align:start;line-height:100%;writing-mode:lr-tb;text-anchor:start;fill:#000000;fill-opacity:1;fill-rule:evenodd;stroke:none;stroke-width:1;stroke-linecap:butt;stroke-linejoin:round;stroke-miterlimit:4;stroke-dashoffset:0;stroke-opacity:1;font-family:Serif"
     id="text4749" />
  <path
     d="M 236.944,312.15329 C 237.55337,311.92414 238.13671,311.74966 238.694,311.62986 C 239.2565,311.51008 239.78254,311.45018 240.27212,311.45017 C 241.41274,311.45018 242.30337,311.69758 242.944,312.19236 C 243.58462,312.68195 243.90493,313.36424 243.90494,314.23923 C 243.90493,314.94237 243.68357,315.53091 243.24087,316.00486 C 242.79816,316.47361 242.17056,316.79132 241.35806,316.95798 C 242.31639,317.09341 243.05858,317.44236 243.58462,318.00486 C 244.11587,318.56215 244.38149,319.28611 244.3815,320.17673 C 244.38149,321.26528 244.0143,322.10121 243.27994,322.68454 C 242.55076,323.26267 241.49868,323.55173 240.12369,323.55173 C 239.51431,323.55173 238.91795,323.48663 238.33462,323.35642 C 237.7565,323.22621 237.18098,323.02829 236.60806,322.76267 L 236.60806,320.49704 L 237.48306,320.49704 C 237.53514,321.24705 237.78775,321.81475 238.24087,322.20017 C 238.694,322.58559 239.33202,322.7783 240.15494,322.77829 C 240.95181,322.7783 241.57941,322.54913 242.03775,322.09079 C 242.50128,321.62725 242.73305,320.99444 242.73306,320.19236 C 242.73305,319.27569 242.49608,318.58299 242.02212,318.11423 C 241.54816,317.64028 240.85285,317.4033 239.93619,317.40329 L 239.194,317.40329 L 239.194,316.60642 L 239.58462,316.60642 C 240.49608,316.60643 241.17837,316.41893 241.6315,316.04392 C 242.08983,315.66372 242.31899,315.09341 242.319,314.33298 C 242.31899,313.6507 242.13149,313.12987 241.7565,312.77048 C 241.38149,312.40591 240.84243,312.22362 240.13931,312.22361 C 239.43618,312.22362 238.88931,312.39028 238.49869,312.72361 C 238.11327,313.05695 237.88671,313.55174 237.819,314.20798 L 236.944,314.20798 L 236.944,312.15329 M 250.66275,322.77829 C 251.45962,322.7783 252.05597,322.3408 252.45181,321.46579 C 252.84764,320.5908 253.04555,319.27049 253.04556,317.50486 C 253.04555,315.73403 252.84764,314.41112 252.45181,313.53611 C 252.05597,312.66112 251.45962,312.22362 250.66275,312.22361 C 249.86587,312.22362 249.26952,312.66112 248.87369,313.53611 C 248.47785,314.41112 248.27993,315.73403 248.27994,317.50486 C 248.27993,319.27049 248.47785,320.5908 248.87369,321.46579 C 249.26952,322.3408 249.86587,322.7783 250.66275,322.77829 M 250.66275,323.55173 C 249.39712,323.55173 248.40754,323.02048 247.694,321.95798 C 246.98566,320.89548 246.6315,319.41111 246.6315,317.50486 C 246.6315,315.59341 246.98566,314.10643 247.694,313.04392 C 248.40754,311.98143 249.39712,311.45018 250.66275,311.45017 C 251.93358,311.45018 252.92316,311.98143 253.6315,313.04392 C 254.33982,314.10643 254.69399,315.59341 254.694,317.50486 C 254.69399,319.41111 254.33982,320.89548 253.6315,321.95798 C 252.92316,323.02048 251.93358,323.55173 250.66275,323.55173 M 260.85025,322.77829 C 261.64712,322.7783 262.24347,322.3408 262.63931,321.46579 C 263.03514,320.5908 263.23305,319.27049 263.23306,317.50486 C 263.23305,315.73403 263.03514,314.41112 262.63931,313.53611 C 262.24347,312.66112 261.64712,312.22362 260.85025,312.22361 C 260.05337,312.22362 259.45702,312.66112 259.06119,313.53611 C 258.66535,314.41112 258.46743,315.73403 258.46744,317.50486 C 258.46743,319.27049 258.66535,320.5908 259.06119,321.46579 C 259.45702,322.3408 260.05337,322.7783 260.85025,322.77829 M 260.85025,323.55173 C 259.58462,323.55173 258.59504,323.02048 257.8815,321.95798 C 257.17316,320.89548 256.819,319.41111 256.819,317.50486 C 256.819,315.59341 257.17316,314.10643 257.8815,313.04392 C 258.59504,311.98143 259.58462,311.45018 260.85025,311.45017 C 262.12108,311.45018 263.11066,311.98143 263.819,313.04392 C 264.52732,314.10643 264.88149,315.59341 264.8815,317.50486 C 264.88149,319.41111 264.52732,320.89548 263.819,321.95798 C 263.11066,323.02048 262.12108,323.55173 260.85025,323.55173"
     style="font-size:16px;font-style:normal;font-variant:normal;font-weight:normal;font-stretch:normal;text-align:start;line-height:100%;writing-mode:lr-tb;text-anchor:start;fill:#000000;fill-opacity:1;fill-rule:evenodd;stroke:none;stroke-width:1;stroke-linecap:butt;stroke-linejoin:round;stroke-miterlimit:4;stroke-dashoffset:0;stroke-opacity:1;font-family:Serif"
     id="text4755" />
  <path
     d="M 191.06369,312.15329 C 191.67306,311.92414 192.2564,311.74966 192.81369,311.62986 C 193.37619,311.51008 193.90223,311.45018 194.39181,311.45017 C 195.53243,311.45018 196.42306,311.69758 197.06369,312.19236 C 197.70431,312.68195 198.02462,313.36424 198.02463,314.23923 C 198.02462,314.94237 197.80326,315.53091 197.36056,316.00486 C 196.91785,316.47361 196.29025,316.79132 195.47775,316.95798 C 196.43608,317.09341 197.17827,317.44236 197.70431,318.00486 C 198.23556,318.56215 198.50118,319.28611 198.50119,320.17673 C 198.50118,321.26528 198.13399,322.10121 197.39963,322.68454 C 196.67045,323.26267 195.61837,323.55173 194.24338,323.55173 C 193.634,323.55173 193.03764,323.48663 192.45431,323.35642 C 191.87619,323.22621 191.30067,323.02829 190.72775,322.76267 L 190.72775,320.49704 L 191.60275,320.49704 C 191.65483,321.24705 191.90744,321.81475 192.36056,322.20017 C 192.81369,322.58559 193.45171,322.7783 194.27463,322.77829 C 195.0715,322.7783 195.6991,322.54913 196.15744,322.09079 C 196.62097,321.62725 196.85274,320.99444 196.85275,320.19236 C 196.85274,319.27569 196.61577,318.58299 196.14181,318.11423 C 195.66785,317.64028 194.97254,317.4033 194.05588,317.40329 L 193.31369,317.40329 L 193.31369,316.60642 L 193.70431,316.60642 C 194.61577,316.60643 195.29806,316.41893 195.75119,316.04392 C 196.20952,315.66372 196.43868,315.09341 196.43869,314.33298 C 196.43868,313.6507 196.25118,313.12987 195.87619,312.77048 C 195.50118,312.40591 194.96212,312.22362 194.259,312.22361 C 193.55587,312.22362 193.009,312.39028 192.61838,312.72361 C 192.23296,313.05695 192.0064,313.55174 191.93869,314.20798 L 191.06369,314.20798 L 191.06369,312.15329 M 207.74338,311.66111 L 207.74338,312.94236 L 202.39963,312.94236 L 202.39963,316.28611 C 202.67046,316.09861 202.98556,315.95799 203.34494,315.86423 C 203.70952,315.77049 204.11577,315.72361 204.56369,315.72361 C 205.8241,315.72361 206.81889,316.07257 207.54806,316.77048 C 208.27722,317.4684 208.64181,318.42153 208.64181,319.62986 C 208.64181,320.86423 208.27201,321.82778 207.53244,322.52048 C 206.79806,323.20798 205.7642,323.55173 204.43088,323.55173 C 203.89441,323.55173 203.34494,323.48663 202.78244,323.35642 C 202.21994,323.22621 201.64442,323.02829 201.05588,322.76267 L 201.05588,320.49704 L 201.93869,320.49704 C 201.98556,321.23663 202.21994,321.80173 202.64181,322.19236 C 203.06889,322.58298 203.66525,322.7783 204.43088,322.77829 C 205.25379,322.7783 205.8866,322.50746 206.32931,321.96579 C 206.77202,321.42413 206.99337,320.64548 206.99338,319.62986 C 206.99337,318.61945 206.77202,317.84601 206.32931,317.30954 C 205.89181,316.76788 205.259,316.49705 204.43088,316.49704 C 203.96212,316.49705 203.54806,316.58038 203.18869,316.74704 C 202.83452,316.91372 202.51942,317.17153 202.24338,317.52048 L 201.5715,317.52048 L 201.5715,311.66111 L 207.74338,311.66111 M 214.96994,322.77829 C 215.76681,322.7783 216.36316,322.3408 216.759,321.46579 C 217.15483,320.5908 217.35274,319.27049 217.35275,317.50486 C 217.35274,315.73403 217.15483,314.41112 216.759,313.53611 C 216.36316,312.66112 215.76681,312.22362 214.96994,312.22361 C 214.17306,312.22362 213.57671,312.66112 213.18088,313.53611 C 212.78504,314.41112 212.58712,315.73403 212.58713,317.50486 C 212.58712,319.27049 212.78504,320.5908 213.18088,321.46579 C 213.57671,322.3408 214.17306,322.7783 214.96994,322.77829 M 214.96994,323.55173 C 213.70431,323.55173 212.71473,323.02048 212.00119,321.95798 C 211.29285,320.89548 210.93869,319.41111 210.93869,317.50486 C 210.93869,315.59341 211.29285,314.10643 212.00119,313.04392 C 212.71473,311.98143 213.70431,311.45018 214.96994,311.45017 C 216.24077,311.45018 217.23035,311.98143 217.93869,313.04392 C 218.64701,314.10643 219.00118,315.59341 219.00119,317.50486 C 219.00118,319.41111 218.64701,320.89548 217.93869,321.95798 C 217.23035,323.02048 216.24077,323.55173 214.96994,323.55173"
     style="font-size:16px;font-style:normal;font-variant:normal;font-weight:normal;font-stretch:normal;text-align:start;line-height:100%;writing-mode:lr-tb;text-anchor:start;fill:#000000;fill-opacity:1;fill-rule:evenodd;stroke:none;stroke-width:1;stroke-linecap:butt;stroke-linejoin:round;stroke-miterlimit:4;stroke-dashoffset:0;stroke-opacity:1;font-family:Serif"
     id="text4761" />
  <path
     d="M 150.15497,319.37204 L 150.15497,313.16892 L 146.1706,319.37204 L 150.15497,319.37204 M 153.59247,323.32517 L 148.27997,323.32517 L 148.27997,322.49704 L 150.15497,322.49704 L 150.15497,320.20798 L 145.06122,320.20798 L 145.06122,319.35642 L 150.1706,311.45017 L 151.71747,311.45017 L 151.71747,319.37204 L 153.94404,319.37204 L 153.94404,320.20798 L 151.71747,320.20798 L 151.71747,322.49704 L 153.59247,322.49704 L 153.59247,323.32517 M 159.84247,322.77829 C 160.63934,322.7783 161.2357,322.3408 161.63154,321.46579 C 162.02736,320.5908 162.22528,319.27049 162.22529,317.50486 C 162.22528,315.73403 162.02736,314.41112 161.63154,313.53611 C 161.2357,312.66112 160.63934,312.22362 159.84247,312.22361 C 159.04559,312.22362 158.44924,312.66112 158.05341,313.53611 C 157.65758,314.41112 157.45966,315.73403 157.45966,317.50486 C 157.45966,319.27049 157.65758,320.5908 158.05341,321.46579 C 158.44924,322.3408 159.04559,322.7783 159.84247,322.77829 M 159.84247,323.55173 C 158.57685,323.55173 157.58726,323.02048 156.87372,321.95798 C 156.16539,320.89548 155.81122,319.41111 155.81122,317.50486 C 155.81122,315.59341 156.16539,314.10643 156.87372,313.04392 C 157.58726,311.98143 158.57685,311.45018 159.84247,311.45017 C 161.1133,311.45018 162.10288,311.98143 162.81122,313.04392 C 163.51955,314.10643 163.87371,315.59341 163.87372,317.50486 C 163.87371,319.41111 163.51955,320.89548 162.81122,321.95798 C 162.10288,323.02048 161.1133,323.55173 159.84247,323.55173 M 170.02997,322.77829 C 170.82684,322.7783 171.4232,322.3408 171.81904,321.46579 C 172.21486,320.5908 172.41278,319.27049 172.41279,317.50486 C 172.41278,315.73403 172.21486,314.41112 171.81904,313.53611 C 171.4232,312.66112 170.82684,312.22362 170.02997,312.22361 C 169.23309,312.22362 168.63674,312.66112 168.24091,313.53611 C 167.84508,314.41112 167.64716,315.73403 167.64716,317.50486 C 167.64716,319.27049 167.84508,320.5908 168.24091,321.46579 C 168.63674,322.3408 169.23309,322.7783 170.02997,322.77829 M 170.02997,323.55173 C 168.76435,323.55173 167.77476,323.02048 167.06122,321.95798 C 166.35289,320.89548 165.99872,319.41111 165.99872,317.50486 C 165.99872,315.59341 166.35289,314.10643 167.06122,313.04392 C 167.77476,311.98143 168.76435,311.45018 170.02997,311.45017 C 171.3008,311.45018 172.29038,311.98143 172.99872,313.04392 C 173.70705,314.10643 174.06121,315.59341 174.06122,317.50486 C 174.06121,319.41111 173.70705,320.89548 172.99872,321.95798 C 172.29038,323.02048 171.3008,323.55173 170.02997,323.55173"
     style="font-size:16px;font-style:normal;font-variant:normal;font-weight:normal;font-stretch:normal;text-align:start;line-height:100%;writing-mode:lr-tb;text-anchor:start;fill:#000000;fill-opacity:1;fill-rule:evenodd;stroke:none;stroke-width:1;stroke-linecap:butt;stroke-linejoin:round;stroke-miterlimit:4;stroke-dashoffset:0;stroke-opacity:1;font-family:Serif"
     id="text4767" />
  <path
     d="M 103.28464,319.93235 L 103.28464,313.72922 L 99.300273,319.93235 L 103.28464,319.93235 M 106.72214,323.88547 L 101.40964,323.88547 L 101.40964,323.05735 L 103.28464,323.05735 L 103.28464,320.76828 L 98.190893,320.76828 L 98.190893,319.91672 L 103.30027,312.01047 L 104.84714,312.01047 L 104.84714,319.93235 L 107.07371,319.93235 L 107.07371,320.76828 L 104.84714,320.76828 L 104.84714,323.05735 L 106.72214,323.05735 L 106.72214,323.88547 M 115.93308,312.22141 L 115.93308,313.50266 L 110.58933,313.50266 L 110.58933,316.84641 C 110.86016,316.65892 111.17527,316.51829 111.53464,316.42453 C 111.89922,316.33079 112.30547,316.28392 112.75339,316.28391 C 114.01381,316.28392 115.0086,316.63288 115.73777,317.33078 C 116.46693,318.02871 116.83151,318.98183 116.83152,320.19016 C 116.83151,321.42454 116.46172,322.38808 115.72214,323.08078 C 114.98776,323.76829 113.95391,324.11203 112.62058,324.11203 C 112.08412,324.11203 111.53464,324.04693 110.97214,323.91672 C 110.40964,323.78651 109.83412,323.5886 109.24558,323.32297 L 109.24558,321.05735 L 110.12839,321.05735 C 110.17527,321.79693 110.40964,322.36204 110.83152,322.75266 C 111.2586,323.14329 111.85495,323.3386 112.62058,323.3386 C 113.44349,323.3386 114.07631,323.06776 114.51902,322.5261 C 114.96172,321.98443 115.18307,321.20579 115.18308,320.19016 C 115.18307,319.17975 114.96172,318.40631 114.51902,317.86985 C 114.08151,317.32819 113.4487,317.05735 112.62058,317.05735 C 112.15183,317.05735 111.73777,317.14069 111.37839,317.30735 C 111.02422,317.47402 110.70912,317.73183 110.43308,318.08078 L 109.76121,318.08078 L 109.76121,312.22141 L 115.93308,312.22141 M 123.15964,323.3386 C 123.95651,323.3386 124.55287,322.9011 124.94871,322.0261 C 125.34453,321.1511 125.54245,319.83079 125.54246,318.06516 C 125.54245,316.29433 125.34453,314.97142 124.94871,314.09641 C 124.55287,313.22142 123.95651,312.78392 123.15964,312.78391 C 122.36277,312.78392 121.76641,313.22142 121.37058,314.09641 C 120.97475,314.97142 120.77683,316.29433 120.77683,318.06516 C 120.77683,319.83079 120.97475,321.1511 121.37058,322.0261 C 121.76641,322.9011 122.36277,323.3386 123.15964,323.3386 M 123.15964,324.11203 C 121.89402,324.11203 120.90443,323.58079 120.19089,322.51828 C 119.48256,321.45579 119.12839,319.97141 119.12839,318.06516 C 119.12839,316.15371 119.48256,314.66673 120.19089,313.60422 C 120.90443,312.54173 121.89402,312.01048 123.15964,312.01047 C 124.43047,312.01048 125.42005,312.54173 126.12839,313.60422 C 126.83672,314.66673 127.19089,316.15371 127.19089,318.06516 C 127.19089,319.97141 126.83672,321.45579 126.12839,322.51828 C 125.42005,323.58079 124.43047,324.11203 123.15964,324.11203"
     style="font-size:16px;font-style:normal;font-variant:normal;font-weight:normal;font-stretch:normal;text-align:start;line-height:100%;writing-mode:lr-tb;text-anchor:start;fill:#000000;fill-opacity:1;fill-rule:evenodd;stroke:none;stroke-width:1;stroke-linecap:butt;stroke-linejoin:round;stroke-miterlimit:4;stroke-dashoffset:0;stroke-opacity:1;font-family:Serif"
     id="text4773" />
  <path
     d="M 60.052341,311.94126 L 60.052341,313.22251 L 54.708591,313.22251 L 54.708591,316.56626 C 54.979421,316.37877 55.294531,316.23814 55.653901,316.14438 C 56.018481,316.05064 56.424731,316.00377 56.872651,316.00376 C 58.133071,316.00377 59.127861,316.35272 59.857031,317.05063 C 60.586191,317.74856 60.950771,318.70168 60.950781,319.91001 C 60.950771,321.14439 60.580981,322.10793 59.841401,322.80063 C 59.107021,323.48813 58.073171,323.83188 56.739841,323.83188 C 56.203381,323.83188 55.653901,323.76678 55.091401,323.63657 C 54.528901,323.50636 53.953381,323.30845 53.364841,323.04282 L 53.364841,320.7772 L 54.247651,320.7772 C 54.294531,321.51678 54.528901,322.08189 54.950781,322.47251 C 55.377861,322.86313 55.974211,323.05845 56.739841,323.05845 C 57.562751,323.05845 58.195571,322.78761 58.638281,322.24595 C 59.080981,321.70428 59.302331,320.92564 59.302341,319.91001 C 59.302331,318.8996 59.080981,318.12616 58.638281,317.5897 C 58.200771,317.04804 57.567961,316.7772 56.739841,316.7772 C 56.271091,316.7772 55.857031,316.86054 55.497651,317.0272 C 55.143481,317.19387 54.828381,317.45168 54.552341,317.80063 L 53.880471,317.80063 L 53.880471,311.94126 L 60.052341,311.94126 M 67.2789,323.05845 C 68.075771,323.05845 68.672131,322.62095 69.067971,321.74595 C 69.463791,320.87095 69.661711,319.55064 69.661721,317.78501 C 69.661711,316.01418 69.463791,314.69127 69.067971,313.81626 C 68.672131,312.94127 68.075771,312.50377 67.2789,312.50376 C 66.482031,312.50377 65.885671,312.94127 65.489841,313.81626 C 65.094011,314.69127 64.896091,316.01418 64.896091,317.78501 C 64.896091,319.55064 65.094011,320.87095 65.489841,321.74595 C 65.885671,322.62095 66.482031,323.05845 67.2789,323.05845 M 67.2789,323.83188 C 66.013281,323.83188 65.023691,323.30063 64.310151,322.23813 C 63.601821,321.17564 63.247651,319.69126 63.247651,317.78501 C 63.247651,315.87356 63.601821,314.38658 64.310151,313.32407 C 65.023691,312.26158 66.013281,311.73033 67.2789,311.73032 C 68.549731,311.73033 69.539311,312.26158 70.247651,313.32407 C 70.955981,314.38658 71.310151,315.87356 71.310151,317.78501 C 71.310151,319.69126 70.955981,321.17564 70.247651,322.23813 C 69.539311,323.30063 68.549731,323.83188 67.2789,323.83188 M 77.466403,323.05845 C 78.263273,323.05845 78.859633,322.62095 79.255473,321.74595 C 79.651293,320.87095 79.849213,319.55064 79.849223,317.78501 C 79.849213,316.01418 79.651293,314.69127 79.255473,313.81626 C 78.859633,312.94127 78.263273,312.50377 77.466403,312.50376 C 76.669533,312.50377 76.073173,312.94127 75.677343,313.81626 C 75.281513,314.69127 75.083591,316.01418 75.083591,317.78501 C 75.083591,319.55064 75.281513,320.87095 75.677343,321.74595 C 76.073173,322.62095 76.669533,323.05845 77.466403,323.05845 M 77.466403,323.83188 C 76.200783,323.83188 75.211191,323.30063 74.497651,322.23813 C 73.789321,321.17564 73.435151,319.69126 73.435151,317.78501 C 73.435151,315.87356 73.789321,314.38658 74.497651,313.32407 C 75.211191,312.26158 76.200783,311.73033 77.466403,311.73032 C 78.737233,311.73033 79.726813,312.26158 80.435153,313.32407 C 81.143483,314.38658 81.497653,315.87356 81.497653,317.78501 C 81.497653,319.69126 81.143483,321.17564 80.435153,322.23813 C 79.726813,323.30063 78.737233,323.83188 77.466403,323.83188"
     style="font-size:16px;font-style:normal;font-variant:normal;font-weight:normal;font-stretch:normal;text-align:start;line-height:100%;writing-mode:lr-tb;text-anchor:start;fill:#000000;fill-opacity:1;fill-rule:evenodd;stroke:none;stroke-width:1;stroke-linecap:butt;stroke-linejoin:round;stroke-miterlimit:4;stroke-dashoffset:0;stroke-opacity:1;font-family:Serif"
     id="text4779" />
  <path
     d="M 21.770931,311.66111 L 21.770931,312.94236 L 16.427181,312.94236 L 16.427181,316.28611 C 16.698011,316.09861 17.013111,315.95799 17.372491,315.86423 C 17.737071,315.77049 18.143321,315.72361 18.591241,315.72361 C 19.851651,315.72361 20.846441,316.07257 21.575611,316.77048 C 22.304771,317.4684 22.669361,318.42153 22.669361,319.62986 C 22.669361,320.86423 22.299561,321.82778 21.559991,322.52048 C 20.825611,323.20798 19.791751,323.55173 18.458431,323.55173 C 17.921961,323.55173 17.372491,323.48663 16.809991,323.35642 C 16.247491,323.22621 15.671971,323.02829 15.083431,322.76267 L 15.083431,320.49704 L 15.966241,320.49704 C 16.013111,321.23663 16.247491,321.80173 16.669361,322.19236 C 17.096441,322.58298 17.692801,322.7783 18.458431,322.77829 C 19.281341,322.7783 19.914151,322.50746 20.356861,321.96579 C 20.799571,321.42413 21.020921,320.64548 21.020931,319.62986 C 21.020921,318.61945 20.799571,317.84601 20.356861,317.30954 C 19.919361,316.76788 19.286551,316.49705 18.458431,316.49704 C 17.989671,316.49705 17.575611,316.58038 17.216241,316.74704 C 16.862071,316.91372 16.546971,317.17153 16.270931,317.52048 L 15.599051,317.52048 L 15.599051,311.66111 L 21.770931,311.66111 M 29.497491,319.37204 L 29.497491,313.16892 L 25.513111,319.37204 L 29.497491,319.37204 M 32.934991,323.32517 L 27.622491,323.32517 L 27.622491,322.49704 L 29.497491,322.49704 L 29.497491,320.20798 L 24.403741,320.20798 L 24.403741,319.35642 L 29.513111,311.45017 L 31.059991,311.45017 L 31.059991,319.37204 L 33.286551,319.37204 L 33.286551,320.20798 L 31.059991,320.20798 L 31.059991,322.49704 L 32.934991,322.49704 L 32.934991,323.32517 M 36.145931,314.44236 L 35.270931,314.44236 L 35.270931,312.36423 C 35.828221,312.06737 36.388111,311.84081 36.950611,311.68454 C 37.518321,311.52831 38.073011,311.45018 38.614681,311.45017 C 39.828211,311.45018 40.786551,311.74445 41.489681,312.33298 C 42.192791,312.92153 42.544361,313.72101 42.544361,314.73142 C 42.544361,315.87205 41.747481,317.23663 40.153741,318.82517 C 40.028731,318.94497 39.934981,319.03611 39.872491,319.09861 L 36.927181,322.04392 L 41.794361,322.04392 L 41.794361,320.60642 L 42.708431,320.60642 L 42.708431,323.32517 L 35.184991,323.32517 L 35.184991,322.47361 L 38.724051,318.94236 C 39.505301,318.16111 40.062591,317.44497 40.395931,316.79392 C 40.729251,316.13768 40.895921,315.45018 40.895931,314.73142 C 40.895921,313.94497 40.690191,313.33039 40.278741,312.88767 C 39.872481,312.44497 39.309981,312.22362 38.591241,312.22361 C 37.846441,312.22362 37.270921,312.40851 36.864681,312.77829 C 36.458421,313.1481 36.218841,313.70278 36.145931,314.44236"
     style="font-size:16px;font-style:normal;font-variant:normal;font-weight:normal;font-stretch:normal;text-align:start;line-height:100%;writing-mode:lr-tb;text-anchor:start;fill:#000000;fill-opacity:1;fill-rule:evenodd;stroke:none;stroke-width:1;stroke-linecap:butt;stroke-linejoin:round;stroke-miterlimit:4;stroke-dashoffset:0;stroke-opacity:1;font-family:Serif"
     id="text4785" />
  <path
     d="M 525.54309,1.159832 L 525.54309,304.93544"
     style="opacity:1;color:#000000;fill:none;fill-opacity:1;fill-rule:evenodd;stroke:#000000;stroke-width:2;stroke-linecap:round;stroke-linejoin:miter;marker:none;marker-start:none;marker-mid:none;marker-end:none;stroke-miterlimit:4;stroke-dasharray:none;stroke-dashoffset:0;stroke-opacity:1;visibility:visible;display:inline;overflow:visible"
     id="path4531" />
  <path
     d="M 28.093611,1.073077 L 28.093611,305.51715"
     style="opacity:1;color:#000000;fill:none;fill-opacity:1;fill-rule:evenodd;stroke:#000000;stroke-width:2;stroke-linecap:round;stroke-linejoin:miter;marker:none;marker-start:none;marker-mid:none;marker-end:none;stroke-miterlimit:4;stroke-dasharray:none;stroke-dashoffset:0;stroke-opacity:1;visibility:visible;display:inline;overflow:visible"
     id="path4572" />
</svg>
